%TF.GenerationSoftware,KiCad,Pcbnew,(6.0.9)*%
%TF.CreationDate,2023-03-12T19:50:08-06:00*%
%TF.ProjectId,CRSFtoPWM,43525346-746f-4505-974d-2e6b69636164,rev?*%
%TF.SameCoordinates,Original*%
%TF.FileFunction,Copper,L3,Inr*%
%TF.FilePolarity,Positive*%
%FSLAX46Y46*%
G04 Gerber Fmt 4.6, Leading zero omitted, Abs format (unit mm)*
G04 Created by KiCad (PCBNEW (6.0.9)) date 2023-03-12 19:50:08*
%MOMM*%
%LPD*%
G01*
G04 APERTURE LIST*
%TA.AperFunction,ComponentPad*%
%ADD10R,1.700000X1.700000*%
%TD*%
%TA.AperFunction,ComponentPad*%
%ADD11R,1.650000X1.650000*%
%TD*%
%TA.AperFunction,ComponentPad*%
%ADD12C,1.650000*%
%TD*%
%TA.AperFunction,ComponentPad*%
%ADD13O,1.700000X1.700000*%
%TD*%
%TA.AperFunction,ViaPad*%
%ADD14C,0.600000*%
%TD*%
G04 APERTURE END LIST*
D10*
X142900000Y-113100000D03*
D11*
X174560000Y-106690000D03*
D12*
X177100000Y-106690000D03*
X179640000Y-106690000D03*
X174560000Y-109230000D03*
X177100000Y-109230000D03*
X179640000Y-109230000D03*
X174560000Y-111770000D03*
X177100000Y-111770000D03*
X179640000Y-111770000D03*
X174560000Y-114310000D03*
X177100000Y-114310000D03*
X179640000Y-114310000D03*
D10*
X168775000Y-113800000D03*
D13*
X166235000Y-113800000D03*
X163695000Y-113800000D03*
X161155000Y-113800000D03*
X158615000Y-113800000D03*
D11*
X147200000Y-98400000D03*
D12*
X144660000Y-98400000D03*
X142120000Y-98400000D03*
X147200000Y-95860000D03*
X144660000Y-95860000D03*
X142120000Y-95860000D03*
D10*
X151100000Y-107200000D03*
D13*
X151100000Y-104660000D03*
X151100000Y-102120000D03*
X151100000Y-99580000D03*
D11*
X147200000Y-109100000D03*
D12*
X144660000Y-109100000D03*
X142120000Y-109100000D03*
X147200000Y-106560000D03*
X144660000Y-106560000D03*
X142120000Y-106560000D03*
X147200000Y-104020000D03*
X144660000Y-104020000D03*
X142120000Y-104020000D03*
X147200000Y-101480000D03*
X144660000Y-101480000D03*
X142120000Y-101480000D03*
D11*
X174560000Y-96020000D03*
D12*
X177100000Y-96020000D03*
X179640000Y-96020000D03*
X174560000Y-98560000D03*
X177100000Y-98560000D03*
X179640000Y-98560000D03*
X174560000Y-101100000D03*
X177100000Y-101100000D03*
X179640000Y-101100000D03*
X174560000Y-103640000D03*
X177100000Y-103640000D03*
X179640000Y-103640000D03*
D14*
X158200000Y-104000000D03*
X161600000Y-98800000D03*
X160059472Y-107174989D03*
X167600000Y-97500000D03*
X153900000Y-102475498D03*
X171100000Y-108700000D03*
X161700000Y-110200000D03*
X155200000Y-110200000D03*
X155200000Y-105700000D03*
X152800000Y-111100000D03*
X164700000Y-109800000D03*
X164400000Y-108900000D03*
X161300000Y-107875500D03*
X159800000Y-101000000D03*
X168300000Y-104100000D03*
X152800000Y-113100000D03*
X168700000Y-103100000D03*
X169800000Y-107300000D03*
X165500000Y-106600000D03*
X154700000Y-100300000D03*
X158900000Y-110300000D03*
X163000000Y-106600000D03*
X165500000Y-104200000D03*
X158900000Y-99200000D03*
X149200000Y-113000000D03*
X163020878Y-104179122D03*
X159200000Y-107300000D03*
X145375000Y-111225000D03*
X166000000Y-101000000D03*
X160600000Y-98300000D03*
X163474500Y-102047080D03*
X161700000Y-102000000D03*
X160550000Y-104250000D03*
X160450978Y-107875500D03*
X159800000Y-110100000D03*
%TA.AperFunction,Conductor*%
G36*
X173168621Y-95128502D02*
G01*
X173215114Y-95182158D01*
X173226500Y-95234500D01*
X173226500Y-96893134D01*
X173233255Y-96955316D01*
X173284385Y-97091705D01*
X173371739Y-97208261D01*
X173488295Y-97295615D01*
X173496703Y-97298767D01*
X173617289Y-97343973D01*
X173617291Y-97343973D01*
X173624684Y-97346745D01*
X173624340Y-97347661D01*
X173679954Y-97379434D01*
X173712772Y-97442390D01*
X173706345Y-97513095D01*
X173678254Y-97555892D01*
X173534578Y-97699568D01*
X173531421Y-97704076D01*
X173531419Y-97704079D01*
X173403901Y-97886194D01*
X173400744Y-97890703D01*
X173398421Y-97895685D01*
X173398418Y-97895690D01*
X173304456Y-98097192D01*
X173302133Y-98102174D01*
X173300711Y-98107482D01*
X173300710Y-98107484D01*
X173248064Y-98303962D01*
X173241742Y-98327556D01*
X173221406Y-98560000D01*
X173241742Y-98792444D01*
X173243166Y-98797757D01*
X173243166Y-98797759D01*
X173299684Y-99008685D01*
X173302133Y-99017826D01*
X173304455Y-99022806D01*
X173304456Y-99022808D01*
X173398418Y-99224310D01*
X173398421Y-99224315D01*
X173400744Y-99229297D01*
X173403898Y-99233801D01*
X173403901Y-99233806D01*
X173517027Y-99395366D01*
X173534578Y-99420432D01*
X173699568Y-99585422D01*
X173704076Y-99588579D01*
X173704079Y-99588581D01*
X173711307Y-99593642D01*
X173890703Y-99719256D01*
X173894707Y-99721123D01*
X173943469Y-99772264D01*
X173956905Y-99841977D01*
X173930518Y-99907888D01*
X173894812Y-99938828D01*
X173890703Y-99940744D01*
X173879701Y-99948448D01*
X173704079Y-100071419D01*
X173704076Y-100071421D01*
X173699568Y-100074578D01*
X173534578Y-100239568D01*
X173531421Y-100244076D01*
X173531419Y-100244079D01*
X173403901Y-100426194D01*
X173400744Y-100430703D01*
X173398421Y-100435685D01*
X173398418Y-100435690D01*
X173313625Y-100617529D01*
X173302133Y-100642174D01*
X173300711Y-100647482D01*
X173300710Y-100647484D01*
X173243526Y-100860897D01*
X173241742Y-100867556D01*
X173221406Y-101100000D01*
X173241742Y-101332444D01*
X173243166Y-101337757D01*
X173243166Y-101337759D01*
X173294121Y-101527923D01*
X173302133Y-101557826D01*
X173304455Y-101562806D01*
X173304456Y-101562808D01*
X173398418Y-101764310D01*
X173398421Y-101764315D01*
X173400744Y-101769297D01*
X173403898Y-101773801D01*
X173403901Y-101773806D01*
X173522238Y-101942808D01*
X173534578Y-101960432D01*
X173699568Y-102125422D01*
X173704076Y-102128579D01*
X173704079Y-102128581D01*
X173762032Y-102169160D01*
X173890703Y-102259256D01*
X173894707Y-102261123D01*
X173943469Y-102312264D01*
X173956905Y-102381977D01*
X173930518Y-102447888D01*
X173894812Y-102478828D01*
X173890703Y-102480744D01*
X173830932Y-102522596D01*
X173704079Y-102611419D01*
X173704076Y-102611421D01*
X173699568Y-102614578D01*
X173534578Y-102779568D01*
X173531421Y-102784076D01*
X173531419Y-102784079D01*
X173403901Y-102966194D01*
X173400744Y-102970703D01*
X173398421Y-102975685D01*
X173398418Y-102975690D01*
X173313625Y-103157529D01*
X173302133Y-103182174D01*
X173300711Y-103187482D01*
X173300710Y-103187484D01*
X173243526Y-103400897D01*
X173241742Y-103407556D01*
X173221406Y-103640000D01*
X173241742Y-103872444D01*
X173243166Y-103877757D01*
X173243166Y-103877759D01*
X173299672Y-104088640D01*
X173302133Y-104097826D01*
X173304455Y-104102806D01*
X173304456Y-104102808D01*
X173398418Y-104304310D01*
X173398421Y-104304315D01*
X173400744Y-104309297D01*
X173403898Y-104313801D01*
X173403901Y-104313806D01*
X173522238Y-104482808D01*
X173534578Y-104500432D01*
X173699568Y-104665422D01*
X173704076Y-104668579D01*
X173704079Y-104668581D01*
X173860119Y-104777841D01*
X173890703Y-104799256D01*
X173895685Y-104801579D01*
X173895690Y-104801582D01*
X174097192Y-104895544D01*
X174102174Y-104897867D01*
X174107482Y-104899289D01*
X174107484Y-104899290D01*
X174322241Y-104956834D01*
X174322243Y-104956834D01*
X174327556Y-104958258D01*
X174560000Y-104978594D01*
X174792444Y-104958258D01*
X174797757Y-104956834D01*
X174797759Y-104956834D01*
X175012516Y-104899290D01*
X175012518Y-104899289D01*
X175017826Y-104897867D01*
X175022808Y-104895544D01*
X175224310Y-104801582D01*
X175224315Y-104801579D01*
X175229297Y-104799256D01*
X175259881Y-104777841D01*
X175415921Y-104668581D01*
X175415924Y-104668579D01*
X175420432Y-104665422D01*
X175585422Y-104500432D01*
X175597763Y-104482808D01*
X175673609Y-104374488D01*
X175719256Y-104309297D01*
X175721123Y-104305293D01*
X175772264Y-104256531D01*
X175841977Y-104243095D01*
X175907888Y-104269482D01*
X175938828Y-104305188D01*
X175940744Y-104309297D01*
X175986391Y-104374488D01*
X176062238Y-104482808D01*
X176074578Y-104500432D01*
X176239568Y-104665422D01*
X176244076Y-104668579D01*
X176244079Y-104668581D01*
X176400119Y-104777841D01*
X176430703Y-104799256D01*
X176435685Y-104801579D01*
X176435690Y-104801582D01*
X176637192Y-104895544D01*
X176642174Y-104897867D01*
X176647482Y-104899289D01*
X176647484Y-104899290D01*
X176862241Y-104956834D01*
X176862243Y-104956834D01*
X176867556Y-104958258D01*
X177100000Y-104978594D01*
X177332444Y-104958258D01*
X177337757Y-104956834D01*
X177337759Y-104956834D01*
X177552516Y-104899290D01*
X177552518Y-104899289D01*
X177557826Y-104897867D01*
X177562808Y-104895544D01*
X177764310Y-104801582D01*
X177764315Y-104801579D01*
X177769297Y-104799256D01*
X177799881Y-104777841D01*
X177955921Y-104668581D01*
X177955924Y-104668579D01*
X177960432Y-104665422D01*
X178125422Y-104500432D01*
X178137763Y-104482808D01*
X178213609Y-104374488D01*
X178259256Y-104309297D01*
X178261123Y-104305293D01*
X178312264Y-104256531D01*
X178381977Y-104243095D01*
X178447888Y-104269482D01*
X178478828Y-104305188D01*
X178480744Y-104309297D01*
X178526391Y-104374488D01*
X178602238Y-104482808D01*
X178614578Y-104500432D01*
X178779568Y-104665422D01*
X178784076Y-104668579D01*
X178784079Y-104668581D01*
X178940119Y-104777841D01*
X178970703Y-104799256D01*
X178975685Y-104801579D01*
X178975690Y-104801582D01*
X179177192Y-104895544D01*
X179182174Y-104897867D01*
X179187482Y-104899289D01*
X179187484Y-104899290D01*
X179402241Y-104956834D01*
X179402243Y-104956834D01*
X179407556Y-104958258D01*
X179640000Y-104978594D01*
X179872444Y-104958258D01*
X179877757Y-104956834D01*
X179877759Y-104956834D01*
X180092516Y-104899290D01*
X180092518Y-104899289D01*
X180097826Y-104897867D01*
X180104361Y-104894820D01*
X180309297Y-104799256D01*
X180310019Y-104800803D01*
X180371493Y-104785889D01*
X180438585Y-104809108D01*
X180482473Y-104864914D01*
X180491500Y-104911746D01*
X180491500Y-105418254D01*
X180471498Y-105486375D01*
X180417842Y-105532868D01*
X180347568Y-105542972D01*
X180309706Y-105529867D01*
X180309297Y-105530744D01*
X180102808Y-105434456D01*
X180102806Y-105434455D01*
X180097826Y-105432133D01*
X180092518Y-105430711D01*
X180092516Y-105430710D01*
X179877759Y-105373166D01*
X179877757Y-105373166D01*
X179872444Y-105371742D01*
X179640000Y-105351406D01*
X179407556Y-105371742D01*
X179402243Y-105373166D01*
X179402241Y-105373166D01*
X179187484Y-105430710D01*
X179187482Y-105430711D01*
X179182174Y-105432133D01*
X179177194Y-105434455D01*
X179177192Y-105434456D01*
X178975690Y-105528418D01*
X178975685Y-105528421D01*
X178970703Y-105530744D01*
X178966196Y-105533900D01*
X178966194Y-105533901D01*
X178784079Y-105661419D01*
X178784076Y-105661421D01*
X178779568Y-105664578D01*
X178614578Y-105829568D01*
X178611421Y-105834076D01*
X178611419Y-105834079D01*
X178571771Y-105890703D01*
X178480744Y-106020703D01*
X178478877Y-106024707D01*
X178427736Y-106073469D01*
X178358023Y-106086905D01*
X178292112Y-106060518D01*
X178261172Y-106024812D01*
X178259256Y-106020703D01*
X178168229Y-105890703D01*
X178128581Y-105834079D01*
X178128579Y-105834076D01*
X178125422Y-105829568D01*
X177960432Y-105664578D01*
X177955924Y-105661421D01*
X177955921Y-105661419D01*
X177773806Y-105533901D01*
X177773804Y-105533900D01*
X177769297Y-105530744D01*
X177764315Y-105528421D01*
X177764310Y-105528418D01*
X177562808Y-105434456D01*
X177562806Y-105434455D01*
X177557826Y-105432133D01*
X177552518Y-105430711D01*
X177552516Y-105430710D01*
X177337759Y-105373166D01*
X177337757Y-105373166D01*
X177332444Y-105371742D01*
X177100000Y-105351406D01*
X176867556Y-105371742D01*
X176862243Y-105373166D01*
X176862241Y-105373166D01*
X176647484Y-105430710D01*
X176647482Y-105430711D01*
X176642174Y-105432133D01*
X176637194Y-105434455D01*
X176637192Y-105434456D01*
X176435690Y-105528418D01*
X176435685Y-105528421D01*
X176430703Y-105530744D01*
X176426196Y-105533900D01*
X176426194Y-105533901D01*
X176244079Y-105661419D01*
X176244076Y-105661421D01*
X176239568Y-105664578D01*
X176095892Y-105808254D01*
X176033580Y-105842280D01*
X175962765Y-105837215D01*
X175905929Y-105794668D01*
X175887133Y-105754538D01*
X175886745Y-105754684D01*
X175884915Y-105749803D01*
X175883972Y-105747285D01*
X175838767Y-105626703D01*
X175835615Y-105618295D01*
X175748261Y-105501739D01*
X175631705Y-105414385D01*
X175495316Y-105363255D01*
X175433134Y-105356500D01*
X173686866Y-105356500D01*
X173624684Y-105363255D01*
X173488295Y-105414385D01*
X173371739Y-105501739D01*
X173284385Y-105618295D01*
X173233255Y-105754684D01*
X173226500Y-105816866D01*
X173226500Y-107563134D01*
X173233255Y-107625316D01*
X173284385Y-107761705D01*
X173371739Y-107878261D01*
X173488295Y-107965615D01*
X173496703Y-107968767D01*
X173617289Y-108013973D01*
X173617291Y-108013973D01*
X173624684Y-108016745D01*
X173624340Y-108017661D01*
X173679954Y-108049434D01*
X173712772Y-108112390D01*
X173706345Y-108183095D01*
X173678254Y-108225892D01*
X173534578Y-108369568D01*
X173531421Y-108374076D01*
X173531419Y-108374079D01*
X173409325Y-108548448D01*
X173400744Y-108560703D01*
X173398421Y-108565685D01*
X173398418Y-108565690D01*
X173304456Y-108767192D01*
X173302133Y-108772174D01*
X173241742Y-108997556D01*
X173221406Y-109230000D01*
X173241742Y-109462444D01*
X173243166Y-109467757D01*
X173243166Y-109467759D01*
X173277160Y-109594624D01*
X173302133Y-109687826D01*
X173304455Y-109692806D01*
X173304456Y-109692808D01*
X173398418Y-109894310D01*
X173398421Y-109894315D01*
X173400744Y-109899297D01*
X173403898Y-109903801D01*
X173403901Y-109903806D01*
X173490485Y-110027460D01*
X173534578Y-110090432D01*
X173699568Y-110255422D01*
X173704076Y-110258579D01*
X173704079Y-110258581D01*
X173787669Y-110317111D01*
X173890703Y-110389256D01*
X173894707Y-110391123D01*
X173943469Y-110442264D01*
X173956905Y-110511977D01*
X173930518Y-110577888D01*
X173894812Y-110608828D01*
X173890703Y-110610744D01*
X173847103Y-110641273D01*
X173704079Y-110741419D01*
X173704076Y-110741421D01*
X173699568Y-110744578D01*
X173534578Y-110909568D01*
X173531421Y-110914076D01*
X173531419Y-110914079D01*
X173403901Y-111096194D01*
X173400744Y-111100703D01*
X173398421Y-111105685D01*
X173398418Y-111105690D01*
X173304456Y-111307192D01*
X173302133Y-111312174D01*
X173241742Y-111537556D01*
X173221406Y-111770000D01*
X173241742Y-112002444D01*
X173243166Y-112007757D01*
X173243166Y-112007759D01*
X173297422Y-112210243D01*
X173302133Y-112227826D01*
X173304455Y-112232806D01*
X173304456Y-112232808D01*
X173398418Y-112434310D01*
X173398421Y-112434315D01*
X173400744Y-112439297D01*
X173403898Y-112443801D01*
X173403901Y-112443806D01*
X173507453Y-112591693D01*
X173534578Y-112630432D01*
X173699568Y-112795422D01*
X173704076Y-112798579D01*
X173704079Y-112798581D01*
X173752214Y-112832285D01*
X173890703Y-112929256D01*
X173894707Y-112931123D01*
X173943469Y-112982264D01*
X173956905Y-113051977D01*
X173930518Y-113117888D01*
X173894812Y-113148828D01*
X173890703Y-113150744D01*
X173826976Y-113195366D01*
X173704079Y-113281419D01*
X173704076Y-113281421D01*
X173699568Y-113284578D01*
X173534578Y-113449568D01*
X173531421Y-113454076D01*
X173531419Y-113454079D01*
X173409750Y-113627841D01*
X173400744Y-113640703D01*
X173398421Y-113645685D01*
X173398418Y-113645690D01*
X173313089Y-113828679D01*
X173302133Y-113852174D01*
X173241742Y-114077556D01*
X173221406Y-114310000D01*
X173241742Y-114542444D01*
X173302133Y-114767826D01*
X173304455Y-114772806D01*
X173304456Y-114772808D01*
X173369479Y-114912250D01*
X173380140Y-114982442D01*
X173351160Y-115047254D01*
X173291740Y-115086111D01*
X173255284Y-115091500D01*
X170180148Y-115091500D01*
X170112027Y-115071498D01*
X170065534Y-115017842D01*
X170055430Y-114947568D01*
X170069628Y-114904992D01*
X170070234Y-114903884D01*
X170075615Y-114896705D01*
X170126745Y-114760316D01*
X170133500Y-114698134D01*
X170133500Y-112901866D01*
X170126745Y-112839684D01*
X170075615Y-112703295D01*
X169988261Y-112586739D01*
X169871705Y-112499385D01*
X169735316Y-112448255D01*
X169673134Y-112441500D01*
X167876866Y-112441500D01*
X167814684Y-112448255D01*
X167678295Y-112499385D01*
X167561739Y-112586739D01*
X167474385Y-112703295D01*
X167471233Y-112711703D01*
X167471232Y-112711705D01*
X167429722Y-112822433D01*
X167387081Y-112879198D01*
X167320519Y-112903898D01*
X167251170Y-112888691D01*
X167218546Y-112863004D01*
X167167799Y-112807234D01*
X167160273Y-112800215D01*
X166993139Y-112668222D01*
X166984552Y-112662517D01*
X166798117Y-112559599D01*
X166788705Y-112555369D01*
X166587959Y-112484280D01*
X166577988Y-112481646D01*
X166506837Y-112468972D01*
X166493540Y-112470432D01*
X166489000Y-112484989D01*
X166489000Y-113928000D01*
X166468998Y-113996121D01*
X166415342Y-114042614D01*
X166363000Y-114054000D01*
X166107000Y-114054000D01*
X166038879Y-114033998D01*
X165992386Y-113980342D01*
X165981000Y-113928000D01*
X165981000Y-112483102D01*
X165977082Y-112469758D01*
X165962806Y-112467771D01*
X165924324Y-112473660D01*
X165914288Y-112476051D01*
X165711868Y-112542212D01*
X165702359Y-112546209D01*
X165513463Y-112644542D01*
X165504738Y-112650036D01*
X165334433Y-112777905D01*
X165326726Y-112784748D01*
X165179590Y-112938717D01*
X165173109Y-112946722D01*
X165068498Y-113100074D01*
X165013587Y-113145076D01*
X164943062Y-113153247D01*
X164879315Y-113121993D01*
X164858618Y-113097509D01*
X164777822Y-112972617D01*
X164777820Y-112972614D01*
X164775014Y-112968277D01*
X164624670Y-112803051D01*
X164620619Y-112799852D01*
X164620615Y-112799848D01*
X164453414Y-112667800D01*
X164453410Y-112667798D01*
X164449359Y-112664598D01*
X164413028Y-112644542D01*
X164379295Y-112625921D01*
X164253789Y-112556638D01*
X164248920Y-112554914D01*
X164248916Y-112554912D01*
X164048087Y-112483795D01*
X164048083Y-112483794D01*
X164043212Y-112482069D01*
X164038119Y-112481162D01*
X164038116Y-112481161D01*
X163828373Y-112443800D01*
X163828367Y-112443799D01*
X163823284Y-112442894D01*
X163749452Y-112441992D01*
X163605081Y-112440228D01*
X163605079Y-112440228D01*
X163599911Y-112440165D01*
X163379091Y-112473955D01*
X163166756Y-112543357D01*
X163094746Y-112580843D01*
X162984492Y-112638238D01*
X162968607Y-112646507D01*
X162964474Y-112649610D01*
X162964471Y-112649612D01*
X162832834Y-112748448D01*
X162789965Y-112780635D01*
X162635629Y-112942138D01*
X162528201Y-113099621D01*
X162473293Y-113144621D01*
X162402768Y-113152792D01*
X162339021Y-113121538D01*
X162318324Y-113097054D01*
X162237822Y-112972617D01*
X162237820Y-112972614D01*
X162235014Y-112968277D01*
X162084670Y-112803051D01*
X162080619Y-112799852D01*
X162080615Y-112799848D01*
X161913414Y-112667800D01*
X161913410Y-112667798D01*
X161909359Y-112664598D01*
X161873028Y-112644542D01*
X161839295Y-112625921D01*
X161713789Y-112556638D01*
X161708920Y-112554914D01*
X161708916Y-112554912D01*
X161508087Y-112483795D01*
X161508083Y-112483794D01*
X161503212Y-112482069D01*
X161498119Y-112481162D01*
X161498116Y-112481161D01*
X161288373Y-112443800D01*
X161288367Y-112443799D01*
X161283284Y-112442894D01*
X161209452Y-112441992D01*
X161065081Y-112440228D01*
X161065079Y-112440228D01*
X161059911Y-112440165D01*
X160839091Y-112473955D01*
X160626756Y-112543357D01*
X160554746Y-112580843D01*
X160444492Y-112638238D01*
X160428607Y-112646507D01*
X160424474Y-112649610D01*
X160424471Y-112649612D01*
X160292834Y-112748448D01*
X160249965Y-112780635D01*
X160095629Y-112942138D01*
X159988201Y-113099621D01*
X159933293Y-113144621D01*
X159862768Y-113152792D01*
X159799021Y-113121538D01*
X159778324Y-113097054D01*
X159697822Y-112972617D01*
X159697820Y-112972614D01*
X159695014Y-112968277D01*
X159544670Y-112803051D01*
X159540619Y-112799852D01*
X159540615Y-112799848D01*
X159373414Y-112667800D01*
X159373410Y-112667798D01*
X159369359Y-112664598D01*
X159333028Y-112644542D01*
X159299295Y-112625921D01*
X159173789Y-112556638D01*
X159168920Y-112554914D01*
X159168916Y-112554912D01*
X158968087Y-112483795D01*
X158968083Y-112483794D01*
X158963212Y-112482069D01*
X158958119Y-112481162D01*
X158958116Y-112481161D01*
X158748373Y-112443800D01*
X158748367Y-112443799D01*
X158743284Y-112442894D01*
X158669452Y-112441992D01*
X158525081Y-112440228D01*
X158525079Y-112440228D01*
X158519911Y-112440165D01*
X158299091Y-112473955D01*
X158086756Y-112543357D01*
X158014746Y-112580843D01*
X157904492Y-112638238D01*
X157888607Y-112646507D01*
X157884474Y-112649610D01*
X157884471Y-112649612D01*
X157752834Y-112748448D01*
X157709965Y-112780635D01*
X157555629Y-112942138D01*
X157552720Y-112946403D01*
X157552714Y-112946411D01*
X157467556Y-113071249D01*
X157429743Y-113126680D01*
X157413278Y-113162151D01*
X157348206Y-113302338D01*
X157335688Y-113329305D01*
X157275989Y-113544570D01*
X157252251Y-113766695D01*
X157252548Y-113771848D01*
X157252548Y-113771851D01*
X157257486Y-113857484D01*
X157265110Y-113989715D01*
X157266247Y-113994761D01*
X157266248Y-113994767D01*
X157277031Y-114042614D01*
X157314222Y-114207639D01*
X157398266Y-114414616D01*
X157449942Y-114498944D01*
X157512291Y-114600688D01*
X157514987Y-114605088D01*
X157661250Y-114773938D01*
X157737383Y-114837145D01*
X157775218Y-114868556D01*
X157814853Y-114927459D01*
X157816351Y-114998439D01*
X157779236Y-115058962D01*
X157715292Y-115089811D01*
X157694733Y-115091500D01*
X141634500Y-115091500D01*
X141566379Y-115071498D01*
X141519886Y-115017842D01*
X141508500Y-114965500D01*
X141508500Y-114431569D01*
X141528502Y-114363448D01*
X141582158Y-114316955D01*
X141652432Y-114306851D01*
X141710065Y-114330743D01*
X141803295Y-114400615D01*
X141939684Y-114451745D01*
X142001866Y-114458500D01*
X143798134Y-114458500D01*
X143860316Y-114451745D01*
X143996705Y-114400615D01*
X144113261Y-114313261D01*
X144200615Y-114196705D01*
X144251745Y-114060316D01*
X144258500Y-113998134D01*
X144258500Y-112988640D01*
X148386463Y-112988640D01*
X148404163Y-113169160D01*
X148461418Y-113341273D01*
X148465065Y-113347295D01*
X148465066Y-113347297D01*
X148544085Y-113477773D01*
X148555380Y-113496424D01*
X148681382Y-113626902D01*
X148702472Y-113640703D01*
X148803640Y-113706905D01*
X148833159Y-113726222D01*
X148839763Y-113728678D01*
X148839765Y-113728679D01*
X148996558Y-113786990D01*
X148996560Y-113786990D01*
X149003168Y-113789448D01*
X149082250Y-113800000D01*
X149175980Y-113812507D01*
X149175984Y-113812507D01*
X149182961Y-113813438D01*
X149189972Y-113812800D01*
X149189976Y-113812800D01*
X149332459Y-113799832D01*
X149363600Y-113796998D01*
X149370302Y-113794820D01*
X149370304Y-113794820D01*
X149529409Y-113743124D01*
X149529412Y-113743123D01*
X149536108Y-113740947D01*
X149691912Y-113648069D01*
X149823266Y-113522982D01*
X149923643Y-113371902D01*
X149988055Y-113202338D01*
X149989035Y-113195366D01*
X150004034Y-113088640D01*
X151986463Y-113088640D01*
X152004163Y-113269160D01*
X152061418Y-113441273D01*
X152065065Y-113447295D01*
X152065066Y-113447297D01*
X152107347Y-113517111D01*
X152155380Y-113596424D01*
X152160269Y-113601487D01*
X152160270Y-113601488D01*
X152236589Y-113680518D01*
X152281382Y-113726902D01*
X152287278Y-113730760D01*
X152393088Y-113800000D01*
X152433159Y-113826222D01*
X152439763Y-113828678D01*
X152439765Y-113828679D01*
X152596558Y-113886990D01*
X152596560Y-113886990D01*
X152603168Y-113889448D01*
X152686995Y-113900633D01*
X152775980Y-113912507D01*
X152775984Y-113912507D01*
X152782961Y-113913438D01*
X152789972Y-113912800D01*
X152789976Y-113912800D01*
X152932459Y-113899832D01*
X152963600Y-113896998D01*
X152970302Y-113894820D01*
X152970304Y-113894820D01*
X153129409Y-113843124D01*
X153129412Y-113843123D01*
X153136108Y-113840947D01*
X153232513Y-113783478D01*
X153285860Y-113751677D01*
X153285862Y-113751676D01*
X153291912Y-113748069D01*
X153423266Y-113622982D01*
X153523643Y-113471902D01*
X153565884Y-113360702D01*
X153585555Y-113308920D01*
X153585556Y-113308918D01*
X153588055Y-113302338D01*
X153591430Y-113278324D01*
X153612748Y-113126639D01*
X153612748Y-113126636D01*
X153613299Y-113122717D01*
X153613616Y-113100000D01*
X153593397Y-112919745D01*
X153591080Y-112913091D01*
X153536064Y-112755106D01*
X153536062Y-112755103D01*
X153533745Y-112748448D01*
X153437626Y-112594624D01*
X153428835Y-112585771D01*
X153314778Y-112470915D01*
X153314774Y-112470912D01*
X153309815Y-112465918D01*
X153298697Y-112458862D01*
X153205128Y-112399482D01*
X153156666Y-112368727D01*
X153118582Y-112355166D01*
X152992425Y-112310243D01*
X152992420Y-112310242D01*
X152985790Y-112307881D01*
X152978802Y-112307048D01*
X152978799Y-112307047D01*
X152855698Y-112292368D01*
X152805680Y-112286404D01*
X152798677Y-112287140D01*
X152798676Y-112287140D01*
X152632288Y-112304628D01*
X152632286Y-112304629D01*
X152625288Y-112305364D01*
X152453579Y-112363818D01*
X152447575Y-112367512D01*
X152305095Y-112455166D01*
X152305092Y-112455168D01*
X152299088Y-112458862D01*
X152294053Y-112463793D01*
X152294050Y-112463795D01*
X152196219Y-112559599D01*
X152169493Y-112585771D01*
X152071235Y-112738238D01*
X152068826Y-112744858D01*
X152068824Y-112744861D01*
X152019929Y-112879198D01*
X152009197Y-112908685D01*
X151986463Y-113088640D01*
X150004034Y-113088640D01*
X150012748Y-113026639D01*
X150012748Y-113026636D01*
X150013299Y-113022717D01*
X150013616Y-113000000D01*
X149993397Y-112819745D01*
X149991080Y-112813091D01*
X149936064Y-112655106D01*
X149936062Y-112655103D01*
X149933745Y-112648448D01*
X149923662Y-112632312D01*
X149841359Y-112500598D01*
X149837626Y-112494624D01*
X149827354Y-112484280D01*
X149714778Y-112370915D01*
X149714774Y-112370912D01*
X149709815Y-112365918D01*
X149702928Y-112361547D01*
X149613237Y-112304628D01*
X149556666Y-112268727D01*
X149527463Y-112258328D01*
X149392425Y-112210243D01*
X149392420Y-112210242D01*
X149385790Y-112207881D01*
X149378802Y-112207048D01*
X149378799Y-112207047D01*
X149255698Y-112192368D01*
X149205680Y-112186404D01*
X149198677Y-112187140D01*
X149198676Y-112187140D01*
X149032288Y-112204628D01*
X149032286Y-112204629D01*
X149025288Y-112205364D01*
X148853579Y-112263818D01*
X148847575Y-112267512D01*
X148705095Y-112355166D01*
X148705092Y-112355168D01*
X148699088Y-112358862D01*
X148694053Y-112363793D01*
X148694050Y-112363795D01*
X148574525Y-112480843D01*
X148569493Y-112485771D01*
X148471235Y-112638238D01*
X148468826Y-112644858D01*
X148468824Y-112644861D01*
X148412413Y-112799848D01*
X148409197Y-112808685D01*
X148386463Y-112988640D01*
X144258500Y-112988640D01*
X144258500Y-112201866D01*
X144251745Y-112139684D01*
X144200615Y-112003295D01*
X144113261Y-111886739D01*
X143996705Y-111799385D01*
X143860316Y-111748255D01*
X143804440Y-111742185D01*
X143801531Y-111741869D01*
X143798134Y-111741500D01*
X142001866Y-111741500D01*
X141998469Y-111741869D01*
X141995560Y-111742185D01*
X141939684Y-111748255D01*
X141803295Y-111799385D01*
X141767487Y-111826222D01*
X141710065Y-111869257D01*
X141643559Y-111894105D01*
X141574176Y-111879052D01*
X141523946Y-111828878D01*
X141508500Y-111768431D01*
X141508500Y-110480897D01*
X141528502Y-110412776D01*
X141582158Y-110366283D01*
X141652432Y-110356179D01*
X141667111Y-110359190D01*
X141882241Y-110416834D01*
X141882243Y-110416834D01*
X141887556Y-110418258D01*
X142120000Y-110438594D01*
X142352444Y-110418258D01*
X142357757Y-110416834D01*
X142357759Y-110416834D01*
X142572516Y-110359290D01*
X142572518Y-110359289D01*
X142577826Y-110357867D01*
X142583820Y-110355072D01*
X142784310Y-110261582D01*
X142784315Y-110261579D01*
X142789297Y-110259256D01*
X142793806Y-110256099D01*
X142868193Y-110204013D01*
X143920542Y-110204013D01*
X143929838Y-110216028D01*
X143986446Y-110255665D01*
X143995941Y-110261148D01*
X144197364Y-110355072D01*
X144207656Y-110358818D01*
X144422328Y-110416339D01*
X144433123Y-110418242D01*
X144654525Y-110437613D01*
X144665476Y-110437613D01*
X144707985Y-110433894D01*
X144777589Y-110447883D01*
X144828582Y-110497283D01*
X144844772Y-110566409D01*
X144821019Y-110633314D01*
X144807124Y-110649438D01*
X144759144Y-110696424D01*
X144744493Y-110710771D01*
X144646235Y-110863238D01*
X144643826Y-110869858D01*
X144643824Y-110869861D01*
X144586913Y-111026222D01*
X144584197Y-111033685D01*
X144561463Y-111213640D01*
X144579163Y-111394160D01*
X144636418Y-111566273D01*
X144640065Y-111572295D01*
X144640066Y-111572297D01*
X144673705Y-111627841D01*
X144730380Y-111721424D01*
X144735269Y-111726487D01*
X144735270Y-111726488D01*
X144782577Y-111775475D01*
X144856382Y-111851902D01*
X145008159Y-111951222D01*
X145014763Y-111953678D01*
X145014765Y-111953679D01*
X145171558Y-112011990D01*
X145171560Y-112011990D01*
X145178168Y-112014448D01*
X145261995Y-112025633D01*
X145350980Y-112037507D01*
X145350984Y-112037507D01*
X145357961Y-112038438D01*
X145364972Y-112037800D01*
X145364976Y-112037800D01*
X145507459Y-112024832D01*
X145538600Y-112021998D01*
X145545302Y-112019820D01*
X145545304Y-112019820D01*
X145704409Y-111968124D01*
X145704412Y-111968123D01*
X145711108Y-111965947D01*
X145826771Y-111896998D01*
X145860860Y-111876677D01*
X145860862Y-111876676D01*
X145866912Y-111873069D01*
X145998266Y-111747982D01*
X146098643Y-111596902D01*
X146163055Y-111427338D01*
X146164035Y-111420366D01*
X146187748Y-111251639D01*
X146187748Y-111251636D01*
X146188299Y-111247717D01*
X146188616Y-111225000D01*
X146173321Y-111088640D01*
X151986463Y-111088640D01*
X152004163Y-111269160D01*
X152061418Y-111441273D01*
X152065065Y-111447295D01*
X152065066Y-111447297D01*
X152151680Y-111590314D01*
X152155380Y-111596424D01*
X152281382Y-111726902D01*
X152433159Y-111826222D01*
X152439763Y-111828678D01*
X152439765Y-111828679D01*
X152596558Y-111886990D01*
X152596560Y-111886990D01*
X152603168Y-111889448D01*
X152686995Y-111900633D01*
X152775980Y-111912507D01*
X152775984Y-111912507D01*
X152782961Y-111913438D01*
X152789972Y-111912800D01*
X152789976Y-111912800D01*
X152932459Y-111899832D01*
X152963600Y-111896998D01*
X152970302Y-111894820D01*
X152970304Y-111894820D01*
X153129409Y-111843124D01*
X153129412Y-111843123D01*
X153136108Y-111840947D01*
X153245938Y-111775475D01*
X153285860Y-111751677D01*
X153285862Y-111751676D01*
X153291912Y-111748069D01*
X153423266Y-111622982D01*
X153523643Y-111471902D01*
X153588055Y-111302338D01*
X153589035Y-111295366D01*
X153612748Y-111126639D01*
X153612748Y-111126636D01*
X153613299Y-111122717D01*
X153613616Y-111100000D01*
X153593397Y-110919745D01*
X153591080Y-110913091D01*
X153536064Y-110755106D01*
X153536062Y-110755103D01*
X153533745Y-110748448D01*
X153514164Y-110717111D01*
X153441359Y-110600598D01*
X153437626Y-110594624D01*
X153423941Y-110580843D01*
X153314778Y-110470915D01*
X153314774Y-110470912D01*
X153309815Y-110465918D01*
X153298697Y-110458862D01*
X153241082Y-110422299D01*
X153156666Y-110368727D01*
X153063601Y-110335588D01*
X152992425Y-110310243D01*
X152992420Y-110310242D01*
X152985790Y-110307881D01*
X152978802Y-110307048D01*
X152978799Y-110307047D01*
X152855698Y-110292368D01*
X152805680Y-110286404D01*
X152798677Y-110287140D01*
X152798676Y-110287140D01*
X152632288Y-110304628D01*
X152632286Y-110304629D01*
X152625288Y-110305364D01*
X152453579Y-110363818D01*
X152402299Y-110395366D01*
X152305095Y-110455166D01*
X152305092Y-110455168D01*
X152299088Y-110458862D01*
X152294053Y-110463793D01*
X152294050Y-110463795D01*
X152177660Y-110577773D01*
X152169493Y-110585771D01*
X152071235Y-110738238D01*
X152068826Y-110744858D01*
X152068824Y-110744861D01*
X152014243Y-110894820D01*
X152009197Y-110908685D01*
X151986463Y-111088640D01*
X146173321Y-111088640D01*
X146168397Y-111044745D01*
X146165818Y-111037340D01*
X146111064Y-110880106D01*
X146111062Y-110880103D01*
X146108745Y-110873448D01*
X146012626Y-110719624D01*
X145994616Y-110701488D01*
X145889778Y-110595915D01*
X145889774Y-110595912D01*
X145884815Y-110590918D01*
X145878626Y-110586990D01*
X145796056Y-110534590D01*
X145731666Y-110493727D01*
X145670374Y-110471902D01*
X145567425Y-110435243D01*
X145567420Y-110435242D01*
X145560790Y-110432881D01*
X145553802Y-110432048D01*
X145553799Y-110432047D01*
X145472047Y-110422299D01*
X145406774Y-110394372D01*
X145366961Y-110335588D01*
X145365249Y-110264612D01*
X145388544Y-110218514D01*
X145399375Y-110204964D01*
X145392307Y-110191517D01*
X144672812Y-109472022D01*
X144658868Y-109464408D01*
X144657035Y-109464539D01*
X144650420Y-109468790D01*
X143926972Y-110192238D01*
X143920542Y-110204013D01*
X142868193Y-110204013D01*
X142975921Y-110128581D01*
X142975924Y-110128579D01*
X142980432Y-110125422D01*
X143145422Y-109960432D01*
X143160963Y-109938238D01*
X143225176Y-109846531D01*
X143279256Y-109769297D01*
X143281312Y-109764887D01*
X143332551Y-109716030D01*
X143402265Y-109702593D01*
X143468176Y-109728979D01*
X143499406Y-109765019D01*
X143504332Y-109773551D01*
X143544559Y-109831000D01*
X143555036Y-109839375D01*
X143568483Y-109832307D01*
X144287978Y-109112812D01*
X144295592Y-109098868D01*
X144295461Y-109097035D01*
X144291210Y-109090420D01*
X143567762Y-108366972D01*
X143555987Y-108360542D01*
X143543972Y-108369838D01*
X143504332Y-108426449D01*
X143499406Y-108434981D01*
X143448021Y-108483973D01*
X143378307Y-108497406D01*
X143312397Y-108471017D01*
X143281341Y-108435175D01*
X143279256Y-108430703D01*
X143185430Y-108296705D01*
X143148581Y-108244079D01*
X143148579Y-108244076D01*
X143145422Y-108239568D01*
X142980432Y-108074578D01*
X142975924Y-108071421D01*
X142975921Y-108071419D01*
X142851033Y-107983972D01*
X142789297Y-107940744D01*
X142785293Y-107938877D01*
X142736531Y-107887736D01*
X142723095Y-107818023D01*
X142749482Y-107752112D01*
X142785188Y-107721172D01*
X142789297Y-107719256D01*
X142892065Y-107647297D01*
X142975921Y-107588581D01*
X142975924Y-107588579D01*
X142980432Y-107585422D01*
X143145422Y-107420432D01*
X143150320Y-107413438D01*
X143242601Y-107281646D01*
X143279256Y-107229297D01*
X143281123Y-107225293D01*
X143332264Y-107176531D01*
X143401977Y-107163095D01*
X143467888Y-107189482D01*
X143498828Y-107225188D01*
X143500744Y-107229297D01*
X143537399Y-107281646D01*
X143629681Y-107413438D01*
X143634578Y-107420432D01*
X143799568Y-107585422D01*
X143804076Y-107588579D01*
X143804079Y-107588581D01*
X143857034Y-107625660D01*
X143990703Y-107719256D01*
X143995113Y-107721312D01*
X144043970Y-107772551D01*
X144057407Y-107842265D01*
X144031021Y-107908176D01*
X143994981Y-107939406D01*
X143986449Y-107944332D01*
X143929000Y-107984559D01*
X143920625Y-107995036D01*
X143927693Y-108008483D01*
X144647188Y-108727978D01*
X144661132Y-108735592D01*
X144662965Y-108735461D01*
X144669580Y-108731210D01*
X145393028Y-108007762D01*
X145399458Y-107995987D01*
X145390162Y-107983972D01*
X145333551Y-107944332D01*
X145325019Y-107939406D01*
X145276027Y-107888021D01*
X145262594Y-107818307D01*
X145288983Y-107752397D01*
X145324825Y-107721341D01*
X145329297Y-107719256D01*
X145462966Y-107625660D01*
X145515921Y-107588581D01*
X145515924Y-107588579D01*
X145520432Y-107585422D01*
X145685422Y-107420432D01*
X145690320Y-107413438D01*
X145782601Y-107281646D01*
X145819256Y-107229297D01*
X145821123Y-107225293D01*
X145872264Y-107176531D01*
X145941977Y-107163095D01*
X146007888Y-107189482D01*
X146038828Y-107225188D01*
X146040744Y-107229297D01*
X146077399Y-107281646D01*
X146169681Y-107413438D01*
X146174578Y-107420432D01*
X146318254Y-107564108D01*
X146352280Y-107626420D01*
X146347215Y-107697235D01*
X146304668Y-107754071D01*
X146264538Y-107772867D01*
X146264684Y-107773255D01*
X146257291Y-107776027D01*
X146257289Y-107776027D01*
X146147698Y-107817111D01*
X146128295Y-107824385D01*
X146011739Y-107911739D01*
X145924385Y-108028295D01*
X145873255Y-108164684D01*
X145866500Y-108226866D01*
X145866500Y-108231138D01*
X145866443Y-108231331D01*
X145866316Y-108233680D01*
X145865762Y-108233650D01*
X145846498Y-108299259D01*
X145799124Y-108342669D01*
X145751517Y-108367693D01*
X145032022Y-109087188D01*
X145024408Y-109101132D01*
X145024539Y-109102965D01*
X145028790Y-109109580D01*
X145752238Y-109833028D01*
X145796676Y-109857294D01*
X145800871Y-109858206D01*
X145851080Y-109908401D01*
X145865873Y-109966344D01*
X145866316Y-109966320D01*
X145866437Y-109968554D01*
X145866500Y-109968801D01*
X145866500Y-109973134D01*
X145873255Y-110035316D01*
X145924385Y-110171705D01*
X146011739Y-110288261D01*
X146128295Y-110375615D01*
X146264684Y-110426745D01*
X146326866Y-110433500D01*
X148073134Y-110433500D01*
X148135316Y-110426745D01*
X148271705Y-110375615D01*
X148388261Y-110288261D01*
X148462923Y-110188640D01*
X154386463Y-110188640D01*
X154404163Y-110369160D01*
X154461418Y-110541273D01*
X154465065Y-110547295D01*
X154465066Y-110547297D01*
X154526925Y-110649438D01*
X154555380Y-110696424D01*
X154560269Y-110701487D01*
X154560270Y-110701488D01*
X154612049Y-110755106D01*
X154681382Y-110826902D01*
X154736909Y-110863238D01*
X154814603Y-110914079D01*
X154833159Y-110926222D01*
X154839763Y-110928678D01*
X154839765Y-110928679D01*
X154996558Y-110986990D01*
X154996560Y-110986990D01*
X155003168Y-110989448D01*
X155086995Y-111000633D01*
X155175980Y-111012507D01*
X155175984Y-111012507D01*
X155182961Y-111013438D01*
X155189972Y-111012800D01*
X155189976Y-111012800D01*
X155332459Y-110999832D01*
X155363600Y-110996998D01*
X155370302Y-110994820D01*
X155370304Y-110994820D01*
X155529409Y-110943124D01*
X155529412Y-110943123D01*
X155536108Y-110940947D01*
X155638170Y-110880106D01*
X155685860Y-110851677D01*
X155685862Y-110851676D01*
X155691912Y-110848069D01*
X155823266Y-110722982D01*
X155923643Y-110571902D01*
X155972888Y-110442264D01*
X155985555Y-110408920D01*
X155985556Y-110408918D01*
X155988055Y-110402338D01*
X155991368Y-110378767D01*
X156004034Y-110288640D01*
X158086463Y-110288640D01*
X158104163Y-110469160D01*
X158161418Y-110641273D01*
X158165065Y-110647295D01*
X158165066Y-110647297D01*
X158224153Y-110744861D01*
X158255380Y-110796424D01*
X158260269Y-110801487D01*
X158260270Y-110801488D01*
X158314179Y-110857312D01*
X158381382Y-110926902D01*
X158387278Y-110930760D01*
X158489477Y-110997637D01*
X158533159Y-111026222D01*
X158539763Y-111028678D01*
X158539765Y-111028679D01*
X158696558Y-111086990D01*
X158696560Y-111086990D01*
X158703168Y-111089448D01*
X158782250Y-111100000D01*
X158875980Y-111112507D01*
X158875984Y-111112507D01*
X158882961Y-111113438D01*
X158889972Y-111112800D01*
X158889976Y-111112800D01*
X159032459Y-111099832D01*
X159063600Y-111096998D01*
X159070302Y-111094820D01*
X159070304Y-111094820D01*
X159229409Y-111043124D01*
X159229412Y-111043123D01*
X159236108Y-111040947D01*
X159391912Y-110948069D01*
X159428278Y-110913438D01*
X159438497Y-110903707D01*
X159501622Y-110871215D01*
X159569309Y-110876856D01*
X159603168Y-110889448D01*
X159610149Y-110890379D01*
X159610151Y-110890380D01*
X159775980Y-110912507D01*
X159775984Y-110912507D01*
X159782961Y-110913438D01*
X159789972Y-110912800D01*
X159789976Y-110912800D01*
X159932459Y-110899832D01*
X159963600Y-110896998D01*
X159970302Y-110894820D01*
X159970304Y-110894820D01*
X160129409Y-110843124D01*
X160129412Y-110843123D01*
X160136108Y-110840947D01*
X160232513Y-110783478D01*
X160285860Y-110751677D01*
X160285862Y-110751676D01*
X160291912Y-110748069D01*
X160423266Y-110622982D01*
X160523643Y-110471902D01*
X160568023Y-110355072D01*
X160585555Y-110308920D01*
X160585556Y-110308918D01*
X160588055Y-110302338D01*
X160589980Y-110288640D01*
X160612748Y-110126639D01*
X160612748Y-110126636D01*
X160613299Y-110122717D01*
X160613616Y-110100000D01*
X160593397Y-109919745D01*
X160589447Y-109908401D01*
X160536064Y-109755106D01*
X160536062Y-109755103D01*
X160533745Y-109748448D01*
X160477766Y-109658862D01*
X160441359Y-109600598D01*
X160437626Y-109594624D01*
X160409120Y-109565918D01*
X160314778Y-109470915D01*
X160314774Y-109470912D01*
X160309815Y-109465918D01*
X160302928Y-109461547D01*
X160208289Y-109401488D01*
X160156666Y-109368727D01*
X160127463Y-109358328D01*
X159992425Y-109310243D01*
X159992420Y-109310242D01*
X159985790Y-109307881D01*
X159978802Y-109307048D01*
X159978799Y-109307047D01*
X159855698Y-109292368D01*
X159805680Y-109286404D01*
X159798677Y-109287140D01*
X159798676Y-109287140D01*
X159632288Y-109304628D01*
X159632286Y-109304629D01*
X159625288Y-109305364D01*
X159453579Y-109363818D01*
X159447575Y-109367512D01*
X159305090Y-109455169D01*
X159305087Y-109455171D01*
X159299088Y-109458862D01*
X159285155Y-109472506D01*
X159261754Y-109495422D01*
X159199089Y-109528792D01*
X159131334Y-109524098D01*
X159085790Y-109507881D01*
X159078798Y-109507047D01*
X159078797Y-109507047D01*
X158995735Y-109497142D01*
X158905680Y-109486404D01*
X158898677Y-109487140D01*
X158898676Y-109487140D01*
X158732288Y-109504628D01*
X158732286Y-109504629D01*
X158725288Y-109505364D01*
X158553579Y-109563818D01*
X158511627Y-109589627D01*
X158405095Y-109655166D01*
X158405092Y-109655168D01*
X158399088Y-109658862D01*
X158394053Y-109663793D01*
X158394050Y-109663795D01*
X158281712Y-109773805D01*
X158269493Y-109785771D01*
X158171235Y-109938238D01*
X158168826Y-109944858D01*
X158168824Y-109944861D01*
X158114422Y-110094329D01*
X158109197Y-110108685D01*
X158086463Y-110288640D01*
X156004034Y-110288640D01*
X156012748Y-110226639D01*
X156012748Y-110226636D01*
X156013299Y-110222717D01*
X156013616Y-110200000D01*
X155993397Y-110019745D01*
X155991080Y-110013091D01*
X155936064Y-109855106D01*
X155936062Y-109855103D01*
X155933745Y-109848448D01*
X155927365Y-109838238D01*
X155841359Y-109700598D01*
X155837626Y-109694624D01*
X155832664Y-109689627D01*
X155714778Y-109570915D01*
X155714774Y-109570912D01*
X155709815Y-109565918D01*
X155702928Y-109561547D01*
X155643917Y-109524098D01*
X155556666Y-109468727D01*
X155482925Y-109442469D01*
X155392425Y-109410243D01*
X155392420Y-109410242D01*
X155385790Y-109407881D01*
X155378802Y-109407048D01*
X155378799Y-109407047D01*
X155255698Y-109392368D01*
X155205680Y-109386404D01*
X155198677Y-109387140D01*
X155198676Y-109387140D01*
X155032288Y-109404628D01*
X155032286Y-109404629D01*
X155025288Y-109405364D01*
X154853579Y-109463818D01*
X154842043Y-109470915D01*
X154705095Y-109555166D01*
X154705092Y-109555168D01*
X154699088Y-109558862D01*
X154694053Y-109563793D01*
X154694050Y-109563795D01*
X154591934Y-109663795D01*
X154569493Y-109685771D01*
X154471235Y-109838238D01*
X154468826Y-109844858D01*
X154468824Y-109844861D01*
X154421150Y-109975844D01*
X154409197Y-110008685D01*
X154386463Y-110188640D01*
X148462923Y-110188640D01*
X148475615Y-110171705D01*
X148526745Y-110035316D01*
X148533500Y-109973134D01*
X148533500Y-108888640D01*
X163586463Y-108888640D01*
X163604163Y-109069160D01*
X163661418Y-109241273D01*
X163665065Y-109247295D01*
X163665066Y-109247297D01*
X163749817Y-109387238D01*
X163755380Y-109396424D01*
X163760269Y-109401487D01*
X163760270Y-109401488D01*
X163873180Y-109518409D01*
X163906112Y-109581305D01*
X163907549Y-109621728D01*
X163904919Y-109642545D01*
X163886463Y-109788640D01*
X163904163Y-109969160D01*
X163961418Y-110141273D01*
X163965065Y-110147295D01*
X163965066Y-110147297D01*
X164049817Y-110287238D01*
X164055380Y-110296424D01*
X164060269Y-110301487D01*
X164060270Y-110301488D01*
X164122919Y-110366362D01*
X164181382Y-110426902D01*
X164240082Y-110465314D01*
X164311629Y-110512133D01*
X164333159Y-110526222D01*
X164339763Y-110528678D01*
X164339765Y-110528679D01*
X164496558Y-110586990D01*
X164496560Y-110586990D01*
X164503168Y-110589448D01*
X164586732Y-110600598D01*
X164675980Y-110612507D01*
X164675984Y-110612507D01*
X164682961Y-110613438D01*
X164689972Y-110612800D01*
X164689976Y-110612800D01*
X164832459Y-110599832D01*
X164863600Y-110596998D01*
X164870302Y-110594820D01*
X164870304Y-110594820D01*
X165029409Y-110543124D01*
X165029412Y-110543123D01*
X165036108Y-110540947D01*
X165161970Y-110465918D01*
X165185860Y-110451677D01*
X165185862Y-110451676D01*
X165191912Y-110448069D01*
X165323266Y-110322982D01*
X165423643Y-110171902D01*
X165482989Y-110015675D01*
X165485555Y-110008920D01*
X165485556Y-110008918D01*
X165488055Y-110002338D01*
X165491682Y-109976531D01*
X165512748Y-109826639D01*
X165512748Y-109826636D01*
X165513299Y-109822717D01*
X165513616Y-109800000D01*
X165493397Y-109619745D01*
X165491080Y-109613091D01*
X165436064Y-109455106D01*
X165436062Y-109455103D01*
X165433745Y-109448448D01*
X165406823Y-109405364D01*
X165341359Y-109300598D01*
X165337626Y-109294624D01*
X165332664Y-109289627D01*
X165226998Y-109183221D01*
X165193191Y-109120790D01*
X165191630Y-109076901D01*
X165212748Y-108926640D01*
X165212748Y-108926635D01*
X165213299Y-108922717D01*
X165213616Y-108900000D01*
X165193397Y-108719745D01*
X165191080Y-108713091D01*
X165136064Y-108555106D01*
X165136062Y-108555103D01*
X165133745Y-108548448D01*
X165107383Y-108506260D01*
X165041359Y-108400598D01*
X165037626Y-108394624D01*
X165015084Y-108371924D01*
X164914778Y-108270915D01*
X164914774Y-108270912D01*
X164909815Y-108265918D01*
X164898697Y-108258862D01*
X164841867Y-108222797D01*
X164756666Y-108168727D01*
X164710983Y-108152460D01*
X164592425Y-108110243D01*
X164592420Y-108110242D01*
X164585790Y-108107881D01*
X164578802Y-108107048D01*
X164578799Y-108107047D01*
X164439023Y-108090380D01*
X164405680Y-108086404D01*
X164398677Y-108087140D01*
X164398676Y-108087140D01*
X164232288Y-108104628D01*
X164232286Y-108104629D01*
X164225288Y-108105364D01*
X164053579Y-108163818D01*
X164047575Y-108167512D01*
X163905095Y-108255166D01*
X163905092Y-108255168D01*
X163899088Y-108258862D01*
X163894053Y-108263793D01*
X163894050Y-108263795D01*
X163786039Y-108369568D01*
X163769493Y-108385771D01*
X163671235Y-108538238D01*
X163668826Y-108544858D01*
X163668824Y-108544861D01*
X163616384Y-108688938D01*
X163609197Y-108708685D01*
X163586463Y-108888640D01*
X148533500Y-108888640D01*
X148533500Y-108226866D01*
X148526745Y-108164684D01*
X148475615Y-108028295D01*
X148388261Y-107911739D01*
X148271705Y-107824385D01*
X148252302Y-107817111D01*
X148142711Y-107776027D01*
X148142709Y-107776027D01*
X148135316Y-107773255D01*
X148135660Y-107772339D01*
X148080046Y-107740566D01*
X148047228Y-107677610D01*
X148053655Y-107606905D01*
X148081746Y-107564108D01*
X148225422Y-107420432D01*
X148230320Y-107413438D01*
X148356099Y-107233806D01*
X148356102Y-107233801D01*
X148359256Y-107229297D01*
X148361579Y-107224315D01*
X148361582Y-107224310D01*
X148455544Y-107022808D01*
X148455545Y-107022806D01*
X148457867Y-107017826D01*
X148478380Y-106941273D01*
X148516834Y-106797759D01*
X148516834Y-106797757D01*
X148518258Y-106792444D01*
X148538594Y-106560000D01*
X148518258Y-106327556D01*
X148512290Y-106305283D01*
X148459290Y-106107484D01*
X148459289Y-106107482D01*
X148457867Y-106102174D01*
X148455039Y-106096109D01*
X148361582Y-105895690D01*
X148361579Y-105895685D01*
X148359256Y-105890703D01*
X148348852Y-105875844D01*
X148228581Y-105704079D01*
X148228579Y-105704076D01*
X148225422Y-105699568D01*
X148060432Y-105534578D01*
X148055924Y-105531421D01*
X148055921Y-105531419D01*
X147873801Y-105403898D01*
X147869297Y-105400744D01*
X147865293Y-105398877D01*
X147816531Y-105347736D01*
X147803095Y-105278023D01*
X147829482Y-105212112D01*
X147865188Y-105181172D01*
X147869297Y-105179256D01*
X148021868Y-105072425D01*
X148055921Y-105048581D01*
X148055924Y-105048579D01*
X148060432Y-105045422D01*
X148225422Y-104880432D01*
X148231443Y-104871834D01*
X148356099Y-104693806D01*
X148356102Y-104693801D01*
X148359256Y-104689297D01*
X148361579Y-104684315D01*
X148361582Y-104684310D01*
X148388448Y-104626695D01*
X149737251Y-104626695D01*
X149737548Y-104631848D01*
X149737548Y-104631851D01*
X149743011Y-104726590D01*
X149750110Y-104849715D01*
X149751247Y-104854761D01*
X149751248Y-104854767D01*
X149769857Y-104937340D01*
X149799222Y-105067639D01*
X149883266Y-105274616D01*
X149924846Y-105342469D01*
X149944042Y-105373793D01*
X149999987Y-105465088D01*
X150146250Y-105633938D01*
X150150230Y-105637242D01*
X150154981Y-105641187D01*
X150194616Y-105700090D01*
X150196113Y-105771071D01*
X150158997Y-105831593D01*
X150118725Y-105856112D01*
X150066090Y-105875844D01*
X150003295Y-105899385D01*
X149886739Y-105986739D01*
X149799385Y-106103295D01*
X149748255Y-106239684D01*
X149741500Y-106301866D01*
X149741500Y-108098134D01*
X149748255Y-108160316D01*
X149799385Y-108296705D01*
X149886739Y-108413261D01*
X150003295Y-108500615D01*
X150139684Y-108551745D01*
X150201866Y-108558500D01*
X151998134Y-108558500D01*
X152060316Y-108551745D01*
X152196705Y-108500615D01*
X152313261Y-108413261D01*
X152400615Y-108296705D01*
X152451745Y-108160316D01*
X152458500Y-108098134D01*
X152458500Y-107288640D01*
X158386463Y-107288640D01*
X158404163Y-107469160D01*
X158461418Y-107641273D01*
X158465065Y-107647295D01*
X158465066Y-107647297D01*
X158542881Y-107775785D01*
X158555380Y-107796424D01*
X158681382Y-107926902D01*
X158750264Y-107971977D01*
X158825346Y-108021109D01*
X158833159Y-108026222D01*
X158839763Y-108028678D01*
X158839765Y-108028679D01*
X158996558Y-108086990D01*
X158996560Y-108086990D01*
X159003168Y-108089448D01*
X159086995Y-108100633D01*
X159175980Y-108112507D01*
X159175984Y-108112507D01*
X159182961Y-108113438D01*
X159189972Y-108112800D01*
X159189976Y-108112800D01*
X159332459Y-108099832D01*
X159363600Y-108096998D01*
X159370300Y-108094821D01*
X159370305Y-108094820D01*
X159523417Y-108045071D01*
X159594385Y-108043044D01*
X159655183Y-108079706D01*
X159681910Y-108125131D01*
X159712396Y-108216773D01*
X159716043Y-108222795D01*
X159716044Y-108222797D01*
X159788641Y-108342669D01*
X159806358Y-108371924D01*
X159811247Y-108376987D01*
X159811248Y-108376988D01*
X159863121Y-108430703D01*
X159932360Y-108502402D01*
X159938256Y-108506260D01*
X160014571Y-108556199D01*
X160084137Y-108601722D01*
X160090741Y-108604178D01*
X160090743Y-108604179D01*
X160247536Y-108662490D01*
X160247538Y-108662490D01*
X160254146Y-108664948D01*
X160337973Y-108676133D01*
X160426958Y-108688007D01*
X160426962Y-108688007D01*
X160433939Y-108688938D01*
X160440950Y-108688300D01*
X160440954Y-108688300D01*
X160583437Y-108675332D01*
X160614578Y-108672498D01*
X160621280Y-108670320D01*
X160621282Y-108670320D01*
X160780387Y-108618624D01*
X160780390Y-108618623D01*
X160787086Y-108616447D01*
X160808757Y-108603528D01*
X160877513Y-108585827D01*
X160929028Y-108599018D01*
X160933159Y-108601722D01*
X160978607Y-108618624D01*
X161096558Y-108662490D01*
X161096560Y-108662490D01*
X161103168Y-108664948D01*
X161186995Y-108676133D01*
X161275980Y-108688007D01*
X161275984Y-108688007D01*
X161282961Y-108688938D01*
X161289972Y-108688300D01*
X161289976Y-108688300D01*
X161432459Y-108675332D01*
X161463600Y-108672498D01*
X161470302Y-108670320D01*
X161470304Y-108670320D01*
X161629409Y-108618624D01*
X161629412Y-108618623D01*
X161636108Y-108616447D01*
X161739008Y-108555106D01*
X161785860Y-108527177D01*
X161785862Y-108527176D01*
X161791912Y-108523569D01*
X161923266Y-108398482D01*
X162023643Y-108247402D01*
X162074930Y-108112390D01*
X162085555Y-108084420D01*
X162085556Y-108084418D01*
X162088055Y-108077838D01*
X162089052Y-108070744D01*
X162112748Y-107902139D01*
X162112748Y-107902136D01*
X162113299Y-107898217D01*
X162113452Y-107887238D01*
X162113561Y-107879462D01*
X162113561Y-107879457D01*
X162113616Y-107875500D01*
X162093397Y-107695245D01*
X162071622Y-107632715D01*
X162036064Y-107530606D01*
X162036062Y-107530603D01*
X162033745Y-107523948D01*
X161937626Y-107370124D01*
X161931347Y-107363801D01*
X161814778Y-107246415D01*
X161814774Y-107246412D01*
X161809815Y-107241418D01*
X161797821Y-107233806D01*
X161747743Y-107202026D01*
X161656666Y-107144227D01*
X161597003Y-107122982D01*
X161492425Y-107085743D01*
X161492420Y-107085742D01*
X161485790Y-107083381D01*
X161478802Y-107082548D01*
X161478799Y-107082547D01*
X161355698Y-107067868D01*
X161305680Y-107061904D01*
X161298677Y-107062640D01*
X161298676Y-107062640D01*
X161132288Y-107080128D01*
X161132286Y-107080129D01*
X161125288Y-107080864D01*
X161064705Y-107101488D01*
X160960249Y-107137047D01*
X160960246Y-107137048D01*
X160953579Y-107139318D01*
X160947577Y-107143011D01*
X160947574Y-107143012D01*
X160942608Y-107146067D01*
X160874107Y-107164725D01*
X160821066Y-107148745D01*
X160819922Y-107151090D01*
X160813598Y-107148006D01*
X160807644Y-107144227D01*
X160747981Y-107122982D01*
X160643403Y-107085743D01*
X160643398Y-107085742D01*
X160636768Y-107083381D01*
X160629780Y-107082548D01*
X160629777Y-107082547D01*
X160506676Y-107067868D01*
X160456658Y-107061904D01*
X160449655Y-107062640D01*
X160449654Y-107062640D01*
X160283266Y-107080128D01*
X160283264Y-107080129D01*
X160276266Y-107080864D01*
X160215683Y-107101488D01*
X160129719Y-107130752D01*
X160058787Y-107133770D01*
X159997483Y-107097959D01*
X159970123Y-107052911D01*
X159936064Y-106955106D01*
X159936062Y-106955103D01*
X159933745Y-106948448D01*
X159837626Y-106794624D01*
X159832664Y-106789627D01*
X159714778Y-106670915D01*
X159714774Y-106670912D01*
X159709815Y-106665918D01*
X159698697Y-106658862D01*
X159635501Y-106618757D01*
X159588044Y-106588640D01*
X162186463Y-106588640D01*
X162204163Y-106769160D01*
X162261418Y-106941273D01*
X162265065Y-106947295D01*
X162265066Y-106947297D01*
X162347331Y-107083133D01*
X162355380Y-107096424D01*
X162360269Y-107101487D01*
X162360270Y-107101488D01*
X162399259Y-107141862D01*
X162481382Y-107226902D01*
X162497796Y-107237643D01*
X162593088Y-107300000D01*
X162633159Y-107326222D01*
X162639763Y-107328678D01*
X162639765Y-107328679D01*
X162796558Y-107386990D01*
X162796560Y-107386990D01*
X162803168Y-107389448D01*
X162886995Y-107400633D01*
X162975980Y-107412507D01*
X162975984Y-107412507D01*
X162982961Y-107413438D01*
X162989972Y-107412800D01*
X162989976Y-107412800D01*
X163132459Y-107399832D01*
X163163600Y-107396998D01*
X163170302Y-107394820D01*
X163170304Y-107394820D01*
X163329409Y-107343124D01*
X163329412Y-107343123D01*
X163336108Y-107340947D01*
X163491912Y-107248069D01*
X163623266Y-107122982D01*
X163723643Y-106971902D01*
X163788055Y-106802338D01*
X163789551Y-106791693D01*
X163812748Y-106626639D01*
X163812748Y-106626636D01*
X163813299Y-106622717D01*
X163813616Y-106600000D01*
X163812342Y-106588640D01*
X164686463Y-106588640D01*
X164704163Y-106769160D01*
X164761418Y-106941273D01*
X164765065Y-106947295D01*
X164765066Y-106947297D01*
X164847331Y-107083133D01*
X164855380Y-107096424D01*
X164860269Y-107101487D01*
X164860270Y-107101488D01*
X164899259Y-107141862D01*
X164981382Y-107226902D01*
X164997796Y-107237643D01*
X165093088Y-107300000D01*
X165133159Y-107326222D01*
X165139763Y-107328678D01*
X165139765Y-107328679D01*
X165296558Y-107386990D01*
X165296560Y-107386990D01*
X165303168Y-107389448D01*
X165386995Y-107400633D01*
X165475980Y-107412507D01*
X165475984Y-107412507D01*
X165482961Y-107413438D01*
X165489972Y-107412800D01*
X165489976Y-107412800D01*
X165632459Y-107399832D01*
X165663600Y-107396998D01*
X165670302Y-107394820D01*
X165670304Y-107394820D01*
X165829409Y-107343124D01*
X165829412Y-107343123D01*
X165836108Y-107340947D01*
X165923854Y-107288640D01*
X168986463Y-107288640D01*
X169004163Y-107469160D01*
X169061418Y-107641273D01*
X169065065Y-107647295D01*
X169065066Y-107647297D01*
X169142881Y-107775785D01*
X169155380Y-107796424D01*
X169281382Y-107926902D01*
X169350264Y-107971977D01*
X169425346Y-108021109D01*
X169433159Y-108026222D01*
X169439763Y-108028678D01*
X169439765Y-108028679D01*
X169596558Y-108086990D01*
X169596560Y-108086990D01*
X169603168Y-108089448D01*
X169686995Y-108100633D01*
X169775980Y-108112507D01*
X169775984Y-108112507D01*
X169782961Y-108113438D01*
X169789972Y-108112800D01*
X169789976Y-108112800D01*
X169932459Y-108099832D01*
X169963600Y-108096998D01*
X169970302Y-108094820D01*
X169970304Y-108094820D01*
X170129409Y-108043124D01*
X170129412Y-108043123D01*
X170136108Y-108040947D01*
X170248225Y-107974112D01*
X170285860Y-107951677D01*
X170285862Y-107951676D01*
X170291912Y-107948069D01*
X170423266Y-107822982D01*
X170523643Y-107671902D01*
X170572360Y-107543655D01*
X170585555Y-107508920D01*
X170585556Y-107508918D01*
X170588055Y-107502338D01*
X170589035Y-107495366D01*
X170612748Y-107326639D01*
X170612748Y-107326636D01*
X170613299Y-107322717D01*
X170613616Y-107300000D01*
X170593397Y-107119745D01*
X170591080Y-107113091D01*
X170536064Y-106955106D01*
X170536062Y-106955103D01*
X170533745Y-106948448D01*
X170437626Y-106794624D01*
X170432664Y-106789627D01*
X170314778Y-106670915D01*
X170314774Y-106670912D01*
X170309815Y-106665918D01*
X170298697Y-106658862D01*
X170235501Y-106618757D01*
X170156666Y-106568727D01*
X170116782Y-106554525D01*
X169992425Y-106510243D01*
X169992420Y-106510242D01*
X169985790Y-106507881D01*
X169978802Y-106507048D01*
X169978799Y-106507047D01*
X169839023Y-106490380D01*
X169805680Y-106486404D01*
X169798677Y-106487140D01*
X169798676Y-106487140D01*
X169632288Y-106504628D01*
X169632286Y-106504629D01*
X169625288Y-106505364D01*
X169453579Y-106563818D01*
X169447575Y-106567512D01*
X169305095Y-106655166D01*
X169305092Y-106655168D01*
X169299088Y-106658862D01*
X169294053Y-106663793D01*
X169294050Y-106663795D01*
X169179630Y-106775844D01*
X169169493Y-106785771D01*
X169071235Y-106938238D01*
X169068826Y-106944858D01*
X169068824Y-106944861D01*
X169011606Y-107102066D01*
X169009197Y-107108685D01*
X168986463Y-107288640D01*
X165923854Y-107288640D01*
X165991912Y-107248069D01*
X166123266Y-107122982D01*
X166223643Y-106971902D01*
X166288055Y-106802338D01*
X166289551Y-106791693D01*
X166312748Y-106626639D01*
X166312748Y-106626636D01*
X166313299Y-106622717D01*
X166313616Y-106600000D01*
X166293397Y-106419745D01*
X166291080Y-106413091D01*
X166236064Y-106255106D01*
X166236062Y-106255103D01*
X166233745Y-106248448D01*
X166137626Y-106094624D01*
X166108520Y-106065314D01*
X166014778Y-105970915D01*
X166014774Y-105970912D01*
X166009815Y-105965918D01*
X165998697Y-105958862D01*
X165913462Y-105904771D01*
X165856666Y-105868727D01*
X165799174Y-105848255D01*
X165692425Y-105810243D01*
X165692420Y-105810242D01*
X165685790Y-105807881D01*
X165678802Y-105807048D01*
X165678799Y-105807047D01*
X165555698Y-105792368D01*
X165505680Y-105786404D01*
X165498677Y-105787140D01*
X165498676Y-105787140D01*
X165332288Y-105804628D01*
X165332286Y-105804629D01*
X165325288Y-105805364D01*
X165153579Y-105863818D01*
X165095766Y-105899385D01*
X165005095Y-105955166D01*
X165005092Y-105955168D01*
X164999088Y-105958862D01*
X164994053Y-105963793D01*
X164994050Y-105963795D01*
X164882055Y-106073469D01*
X164869493Y-106085771D01*
X164771235Y-106238238D01*
X164768826Y-106244858D01*
X164768824Y-106244861D01*
X164729946Y-106351677D01*
X164709197Y-106408685D01*
X164686463Y-106588640D01*
X163812342Y-106588640D01*
X163793397Y-106419745D01*
X163791080Y-106413091D01*
X163736064Y-106255106D01*
X163736062Y-106255103D01*
X163733745Y-106248448D01*
X163637626Y-106094624D01*
X163608520Y-106065314D01*
X163514778Y-105970915D01*
X163514774Y-105970912D01*
X163509815Y-105965918D01*
X163498697Y-105958862D01*
X163413462Y-105904771D01*
X163356666Y-105868727D01*
X163299174Y-105848255D01*
X163192425Y-105810243D01*
X163192420Y-105810242D01*
X163185790Y-105807881D01*
X163178802Y-105807048D01*
X163178799Y-105807047D01*
X163055698Y-105792368D01*
X163005680Y-105786404D01*
X162998677Y-105787140D01*
X162998676Y-105787140D01*
X162832288Y-105804628D01*
X162832286Y-105804629D01*
X162825288Y-105805364D01*
X162653579Y-105863818D01*
X162595766Y-105899385D01*
X162505095Y-105955166D01*
X162505092Y-105955168D01*
X162499088Y-105958862D01*
X162494053Y-105963793D01*
X162494050Y-105963795D01*
X162382055Y-106073469D01*
X162369493Y-106085771D01*
X162271235Y-106238238D01*
X162268826Y-106244858D01*
X162268824Y-106244861D01*
X162229946Y-106351677D01*
X162209197Y-106408685D01*
X162186463Y-106588640D01*
X159588044Y-106588640D01*
X159556666Y-106568727D01*
X159516782Y-106554525D01*
X159392425Y-106510243D01*
X159392420Y-106510242D01*
X159385790Y-106507881D01*
X159378802Y-106507048D01*
X159378799Y-106507047D01*
X159239023Y-106490380D01*
X159205680Y-106486404D01*
X159198677Y-106487140D01*
X159198676Y-106487140D01*
X159032288Y-106504628D01*
X159032286Y-106504629D01*
X159025288Y-106505364D01*
X158853579Y-106563818D01*
X158847575Y-106567512D01*
X158705095Y-106655166D01*
X158705092Y-106655168D01*
X158699088Y-106658862D01*
X158694053Y-106663793D01*
X158694050Y-106663795D01*
X158579630Y-106775844D01*
X158569493Y-106785771D01*
X158471235Y-106938238D01*
X158468826Y-106944858D01*
X158468824Y-106944861D01*
X158411606Y-107102066D01*
X158409197Y-107108685D01*
X158386463Y-107288640D01*
X152458500Y-107288640D01*
X152458500Y-106301866D01*
X152451745Y-106239684D01*
X152400615Y-106103295D01*
X152313261Y-105986739D01*
X152196705Y-105899385D01*
X152173546Y-105890703D01*
X152078203Y-105854960D01*
X152021439Y-105812318D01*
X151996739Y-105745756D01*
X152009265Y-105688640D01*
X154386463Y-105688640D01*
X154404163Y-105869160D01*
X154461418Y-106041273D01*
X154465065Y-106047295D01*
X154465066Y-106047297D01*
X154525724Y-106147455D01*
X154555380Y-106196424D01*
X154560269Y-106201487D01*
X154560270Y-106201488D01*
X154597156Y-106239684D01*
X154681382Y-106326902D01*
X154687278Y-106330760D01*
X154813093Y-106413091D01*
X154833159Y-106426222D01*
X154839763Y-106428678D01*
X154839765Y-106428679D01*
X154996558Y-106486990D01*
X154996560Y-106486990D01*
X155003168Y-106489448D01*
X155086995Y-106500633D01*
X155175980Y-106512507D01*
X155175984Y-106512507D01*
X155182961Y-106513438D01*
X155189972Y-106512800D01*
X155189976Y-106512800D01*
X155332459Y-106499832D01*
X155363600Y-106496998D01*
X155370302Y-106494820D01*
X155370304Y-106494820D01*
X155529409Y-106443124D01*
X155529412Y-106443123D01*
X155536108Y-106440947D01*
X155691912Y-106348069D01*
X155823266Y-106222982D01*
X155923643Y-106071902D01*
X155988055Y-105902338D01*
X155990324Y-105886194D01*
X156012748Y-105726639D01*
X156012748Y-105726636D01*
X156013299Y-105722717D01*
X156013616Y-105700000D01*
X155993397Y-105519745D01*
X155989627Y-105508919D01*
X155936064Y-105355106D01*
X155936062Y-105355103D01*
X155933745Y-105348448D01*
X155923662Y-105332312D01*
X155841359Y-105200598D01*
X155837626Y-105194624D01*
X155809651Y-105166453D01*
X155714778Y-105070915D01*
X155714774Y-105070912D01*
X155709815Y-105065918D01*
X155698697Y-105058862D01*
X155597782Y-104994820D01*
X155556666Y-104968727D01*
X155527266Y-104958258D01*
X155392425Y-104910243D01*
X155392420Y-104910242D01*
X155385790Y-104907881D01*
X155378802Y-104907048D01*
X155378799Y-104907047D01*
X155239023Y-104890380D01*
X155205680Y-104886404D01*
X155198677Y-104887140D01*
X155198676Y-104887140D01*
X155032288Y-104904628D01*
X155032286Y-104904629D01*
X155025288Y-104905364D01*
X154853579Y-104963818D01*
X154833417Y-104976222D01*
X154705095Y-105055166D01*
X154705092Y-105055168D01*
X154699088Y-105058862D01*
X154694053Y-105063793D01*
X154694050Y-105063795D01*
X154576146Y-105179256D01*
X154569493Y-105185771D01*
X154471235Y-105338238D01*
X154468826Y-105344858D01*
X154468824Y-105344861D01*
X154437060Y-105432133D01*
X154409197Y-105508685D01*
X154386463Y-105688640D01*
X152009265Y-105688640D01*
X152011947Y-105676408D01*
X152033493Y-105647727D01*
X152134435Y-105547137D01*
X152138096Y-105543489D01*
X152147885Y-105529867D01*
X152265435Y-105366277D01*
X152268453Y-105362077D01*
X152271210Y-105356500D01*
X152365136Y-105166453D01*
X152365137Y-105166451D01*
X152367430Y-105161811D01*
X152419046Y-104991922D01*
X152430865Y-104953023D01*
X152430865Y-104953021D01*
X152432370Y-104948069D01*
X152461529Y-104726590D01*
X152462440Y-104689297D01*
X152463074Y-104663365D01*
X152463074Y-104663361D01*
X152463156Y-104660000D01*
X152444852Y-104437361D01*
X152394937Y-104238640D01*
X159736463Y-104238640D01*
X159754163Y-104419160D01*
X159811418Y-104591273D01*
X159815065Y-104597295D01*
X159815066Y-104597297D01*
X159895894Y-104730760D01*
X159905380Y-104746424D01*
X159910269Y-104751487D01*
X159910270Y-104751488D01*
X159958041Y-104800956D01*
X160031382Y-104876902D01*
X160084629Y-104911746D01*
X160172890Y-104969502D01*
X160183159Y-104976222D01*
X160189763Y-104978678D01*
X160189765Y-104978679D01*
X160346558Y-105036990D01*
X160346560Y-105036990D01*
X160353168Y-105039448D01*
X160436995Y-105050633D01*
X160525980Y-105062507D01*
X160525984Y-105062507D01*
X160532961Y-105063438D01*
X160539972Y-105062800D01*
X160539976Y-105062800D01*
X160696206Y-105048581D01*
X160713600Y-105046998D01*
X160720302Y-105044820D01*
X160720304Y-105044820D01*
X160879409Y-104993124D01*
X160879412Y-104993123D01*
X160886108Y-104990947D01*
X161011058Y-104916462D01*
X161035860Y-104901677D01*
X161035862Y-104901676D01*
X161041912Y-104898069D01*
X161173266Y-104772982D01*
X161273643Y-104621902D01*
X161321499Y-104495921D01*
X161335555Y-104458920D01*
X161335556Y-104458918D01*
X161338055Y-104452338D01*
X161340865Y-104432342D01*
X161362748Y-104276639D01*
X161362748Y-104276636D01*
X161363299Y-104272717D01*
X161363616Y-104250000D01*
X161354391Y-104167762D01*
X162207341Y-104167762D01*
X162225041Y-104348282D01*
X162282296Y-104520395D01*
X162285943Y-104526417D01*
X162285944Y-104526419D01*
X162370127Y-104665422D01*
X162376258Y-104675546D01*
X162381147Y-104680609D01*
X162381148Y-104680610D01*
X162396235Y-104696233D01*
X162502260Y-104806024D01*
X162540061Y-104830760D01*
X162644786Y-104899290D01*
X162654037Y-104905344D01*
X162660641Y-104907800D01*
X162660643Y-104907801D01*
X162817436Y-104966112D01*
X162817438Y-104966112D01*
X162824046Y-104968570D01*
X162895581Y-104978115D01*
X162996858Y-104991629D01*
X162996862Y-104991629D01*
X163003839Y-104992560D01*
X163010850Y-104991922D01*
X163010854Y-104991922D01*
X163162557Y-104978115D01*
X163184478Y-104976120D01*
X163191180Y-104973942D01*
X163191182Y-104973942D01*
X163350287Y-104922246D01*
X163350290Y-104922245D01*
X163356986Y-104920069D01*
X163466531Y-104854767D01*
X163506738Y-104830799D01*
X163506740Y-104830798D01*
X163512790Y-104827191D01*
X163644144Y-104702104D01*
X163744521Y-104551024D01*
X163794612Y-104419160D01*
X163806433Y-104388042D01*
X163806434Y-104388040D01*
X163808933Y-104381460D01*
X163811647Y-104362151D01*
X163833626Y-104205761D01*
X163833626Y-104205758D01*
X163834177Y-104201839D01*
X163834361Y-104188640D01*
X164686463Y-104188640D01*
X164704163Y-104369160D01*
X164761418Y-104541273D01*
X164765065Y-104547295D01*
X164765066Y-104547297D01*
X164851064Y-104689297D01*
X164855380Y-104696424D01*
X164860269Y-104701487D01*
X164860270Y-104701488D01*
X164923642Y-104767111D01*
X164981382Y-104826902D01*
X165050045Y-104871834D01*
X165108741Y-104910243D01*
X165133159Y-104926222D01*
X165139763Y-104928678D01*
X165139765Y-104928679D01*
X165296558Y-104986990D01*
X165296560Y-104986990D01*
X165303168Y-104989448D01*
X165386995Y-105000633D01*
X165475980Y-105012507D01*
X165475984Y-105012507D01*
X165482961Y-105013438D01*
X165489972Y-105012800D01*
X165489976Y-105012800D01*
X165632459Y-104999832D01*
X165663600Y-104996998D01*
X165670302Y-104994820D01*
X165670304Y-104994820D01*
X165829409Y-104943124D01*
X165829412Y-104943123D01*
X165836108Y-104940947D01*
X165952046Y-104871834D01*
X165985860Y-104851677D01*
X165985862Y-104851676D01*
X165991912Y-104848069D01*
X166123266Y-104722982D01*
X166223643Y-104571902D01*
X166269062Y-104452338D01*
X166285555Y-104408920D01*
X166285556Y-104408918D01*
X166288055Y-104402338D01*
X166290989Y-104381460D01*
X166312748Y-104226639D01*
X166312748Y-104226636D01*
X166313299Y-104222717D01*
X166313616Y-104200000D01*
X166301125Y-104088640D01*
X167486463Y-104088640D01*
X167504163Y-104269160D01*
X167561418Y-104441273D01*
X167565065Y-104447295D01*
X167565066Y-104447297D01*
X167644085Y-104577773D01*
X167655380Y-104596424D01*
X167660269Y-104601487D01*
X167660270Y-104601488D01*
X167731788Y-104675546D01*
X167781382Y-104726902D01*
X167819242Y-104751677D01*
X167894315Y-104800803D01*
X167933159Y-104826222D01*
X167939763Y-104828678D01*
X167939765Y-104828679D01*
X168096558Y-104886990D01*
X168096560Y-104886990D01*
X168103168Y-104889448D01*
X168176929Y-104899290D01*
X168275980Y-104912507D01*
X168275984Y-104912507D01*
X168282961Y-104913438D01*
X168289972Y-104912800D01*
X168289976Y-104912800D01*
X168438416Y-104899290D01*
X168463600Y-104896998D01*
X168470302Y-104894820D01*
X168470304Y-104894820D01*
X168629409Y-104843124D01*
X168629412Y-104843123D01*
X168636108Y-104840947D01*
X168791912Y-104748069D01*
X168923266Y-104622982D01*
X169023643Y-104471902D01*
X169083701Y-104313801D01*
X169085555Y-104308920D01*
X169085556Y-104308918D01*
X169088055Y-104302338D01*
X169091667Y-104276639D01*
X169112748Y-104126639D01*
X169112748Y-104126636D01*
X169113299Y-104122717D01*
X169113616Y-104100000D01*
X169093397Y-103919745D01*
X169091079Y-103913088D01*
X169090369Y-103909964D01*
X169094780Y-103839104D01*
X169136800Y-103781878D01*
X169148711Y-103773822D01*
X169191912Y-103748069D01*
X169323266Y-103622982D01*
X169423643Y-103471902D01*
X169471394Y-103346199D01*
X169485555Y-103308920D01*
X169485556Y-103308918D01*
X169488055Y-103302338D01*
X169490810Y-103282733D01*
X169512748Y-103126639D01*
X169512748Y-103126636D01*
X169513299Y-103122717D01*
X169513616Y-103100000D01*
X169493397Y-102919745D01*
X169491080Y-102913091D01*
X169436064Y-102755106D01*
X169436062Y-102755103D01*
X169433745Y-102748448D01*
X169337626Y-102594624D01*
X169307405Y-102564191D01*
X169214778Y-102470915D01*
X169214774Y-102470912D01*
X169209815Y-102465918D01*
X169198697Y-102458862D01*
X169135855Y-102418982D01*
X169056666Y-102368727D01*
X169026167Y-102357867D01*
X168892425Y-102310243D01*
X168892420Y-102310242D01*
X168885790Y-102307881D01*
X168878802Y-102307048D01*
X168878799Y-102307047D01*
X168753548Y-102292112D01*
X168705680Y-102286404D01*
X168698677Y-102287140D01*
X168698676Y-102287140D01*
X168532288Y-102304628D01*
X168532286Y-102304629D01*
X168525288Y-102305364D01*
X168353579Y-102363818D01*
X168340439Y-102371902D01*
X168205095Y-102455166D01*
X168205092Y-102455168D01*
X168199088Y-102458862D01*
X168194053Y-102463793D01*
X168194050Y-102463795D01*
X168074525Y-102580843D01*
X168069493Y-102585771D01*
X167971235Y-102738238D01*
X167968826Y-102744858D01*
X167968824Y-102744861D01*
X167926728Y-102860518D01*
X167909197Y-102908685D01*
X167886463Y-103088640D01*
X167904163Y-103269160D01*
X167906387Y-103275845D01*
X167906387Y-103275846D01*
X167907175Y-103278215D01*
X167907232Y-103279822D01*
X167907851Y-103282733D01*
X167907339Y-103282842D01*
X167909697Y-103349166D01*
X167873458Y-103410218D01*
X167853640Y-103425301D01*
X167799088Y-103458862D01*
X167794056Y-103463789D01*
X167794053Y-103463792D01*
X167693621Y-103562143D01*
X167669493Y-103585771D01*
X167571235Y-103738238D01*
X167568826Y-103744858D01*
X167568824Y-103744861D01*
X167512923Y-103898448D01*
X167509197Y-103908685D01*
X167486463Y-104088640D01*
X166301125Y-104088640D01*
X166293397Y-104019745D01*
X166290523Y-104011492D01*
X166236064Y-103855106D01*
X166236062Y-103855103D01*
X166233745Y-103848448D01*
X166227365Y-103838238D01*
X166141359Y-103700598D01*
X166137626Y-103694624D01*
X166122826Y-103679720D01*
X166014778Y-103570915D01*
X166014774Y-103570912D01*
X166009815Y-103565918D01*
X165998697Y-103558862D01*
X165924140Y-103511547D01*
X165856666Y-103468727D01*
X165817071Y-103454628D01*
X165692425Y-103410243D01*
X165692420Y-103410242D01*
X165685790Y-103407881D01*
X165678802Y-103407048D01*
X165678799Y-103407047D01*
X165550907Y-103391797D01*
X165505680Y-103386404D01*
X165498677Y-103387140D01*
X165498676Y-103387140D01*
X165332288Y-103404628D01*
X165332286Y-103404629D01*
X165325288Y-103405364D01*
X165153579Y-103463818D01*
X165147575Y-103467512D01*
X165005095Y-103555166D01*
X165005092Y-103555168D01*
X164999088Y-103558862D01*
X164994053Y-103563793D01*
X164994050Y-103563795D01*
X164875672Y-103679720D01*
X164869493Y-103685771D01*
X164771235Y-103838238D01*
X164768826Y-103844858D01*
X164768824Y-103844861D01*
X164717206Y-103986680D01*
X164709197Y-104008685D01*
X164686463Y-104188640D01*
X163834361Y-104188640D01*
X163834439Y-104183084D01*
X163834439Y-104183079D01*
X163834494Y-104179122D01*
X163814275Y-103998867D01*
X163811666Y-103991375D01*
X163756942Y-103834228D01*
X163756940Y-103834225D01*
X163754623Y-103827570D01*
X163741402Y-103806411D01*
X163662237Y-103679720D01*
X163658504Y-103673746D01*
X163649713Y-103664893D01*
X163535656Y-103550037D01*
X163535652Y-103550034D01*
X163530693Y-103545040D01*
X163519575Y-103537984D01*
X163459764Y-103500027D01*
X163377544Y-103447849D01*
X163314222Y-103425301D01*
X163213303Y-103389365D01*
X163213298Y-103389364D01*
X163206668Y-103387003D01*
X163199680Y-103386170D01*
X163199677Y-103386169D01*
X163076576Y-103371490D01*
X163026558Y-103365526D01*
X163019555Y-103366262D01*
X163019554Y-103366262D01*
X162853166Y-103383750D01*
X162853164Y-103383751D01*
X162846166Y-103384486D01*
X162674457Y-103442940D01*
X162617837Y-103477773D01*
X162525973Y-103534288D01*
X162525970Y-103534290D01*
X162519966Y-103537984D01*
X162514931Y-103542915D01*
X162514928Y-103542917D01*
X162395403Y-103659965D01*
X162390371Y-103664893D01*
X162292113Y-103817360D01*
X162289704Y-103823980D01*
X162289702Y-103823983D01*
X162232484Y-103981188D01*
X162230075Y-103987807D01*
X162207341Y-104167762D01*
X161354391Y-104167762D01*
X161343397Y-104069745D01*
X161341080Y-104063091D01*
X161286064Y-103905106D01*
X161286062Y-103905103D01*
X161283745Y-103898448D01*
X161252502Y-103848448D01*
X161191359Y-103750598D01*
X161187626Y-103744624D01*
X161182664Y-103739627D01*
X161064778Y-103620915D01*
X161064774Y-103620912D01*
X161059815Y-103615918D01*
X161048697Y-103608862D01*
X160964085Y-103555166D01*
X160906666Y-103518727D01*
X160854150Y-103500027D01*
X160742425Y-103460243D01*
X160742420Y-103460242D01*
X160735790Y-103457881D01*
X160728802Y-103457048D01*
X160728799Y-103457047D01*
X160591447Y-103440669D01*
X160555680Y-103436404D01*
X160548677Y-103437140D01*
X160548676Y-103437140D01*
X160382288Y-103454628D01*
X160382286Y-103454629D01*
X160375288Y-103455364D01*
X160203579Y-103513818D01*
X160180852Y-103527800D01*
X160055095Y-103605166D01*
X160055092Y-103605168D01*
X160049088Y-103608862D01*
X160044053Y-103613793D01*
X160044050Y-103613795D01*
X159955410Y-103700598D01*
X159919493Y-103735771D01*
X159821235Y-103888238D01*
X159818826Y-103894858D01*
X159818824Y-103894861D01*
X159761606Y-104052066D01*
X159759197Y-104058685D01*
X159736463Y-104238640D01*
X152394937Y-104238640D01*
X152390431Y-104220702D01*
X152301354Y-104015840D01*
X152261906Y-103954862D01*
X152182822Y-103832617D01*
X152182820Y-103832614D01*
X152180014Y-103828277D01*
X152029670Y-103663051D01*
X152025619Y-103659852D01*
X152025615Y-103659848D01*
X151858414Y-103527800D01*
X151858410Y-103527798D01*
X151854359Y-103524598D01*
X151813053Y-103501796D01*
X151763084Y-103451364D01*
X151748312Y-103381921D01*
X151773428Y-103315516D01*
X151800780Y-103288909D01*
X151844603Y-103257650D01*
X151979860Y-103161173D01*
X152022425Y-103118757D01*
X152134435Y-103007137D01*
X152138096Y-103003489D01*
X152158072Y-102975690D01*
X152265435Y-102826277D01*
X152268453Y-102822077D01*
X152285282Y-102788027D01*
X152365136Y-102626453D01*
X152365137Y-102626451D01*
X152367430Y-102621811D01*
X152427271Y-102424853D01*
X152430865Y-102413023D01*
X152430865Y-102413021D01*
X152432370Y-102408069D01*
X152461529Y-102186590D01*
X152462440Y-102149297D01*
X152463074Y-102123365D01*
X152463074Y-102123361D01*
X152463156Y-102120000D01*
X152452356Y-101988640D01*
X160886463Y-101988640D01*
X160904163Y-102169160D01*
X160961418Y-102341273D01*
X160965065Y-102347295D01*
X160965066Y-102347297D01*
X161044900Y-102479119D01*
X161055380Y-102496424D01*
X161060269Y-102501487D01*
X161060270Y-102501488D01*
X161100845Y-102543504D01*
X161181382Y-102626902D01*
X161333159Y-102726222D01*
X161339763Y-102728678D01*
X161339765Y-102728679D01*
X161496558Y-102786990D01*
X161496560Y-102786990D01*
X161503168Y-102789448D01*
X161586995Y-102800633D01*
X161675980Y-102812507D01*
X161675984Y-102812507D01*
X161682961Y-102813438D01*
X161689972Y-102812800D01*
X161689976Y-102812800D01*
X161832459Y-102799832D01*
X161863600Y-102796998D01*
X161870302Y-102794820D01*
X161870304Y-102794820D01*
X162029409Y-102743124D01*
X162029412Y-102743123D01*
X162036108Y-102740947D01*
X162156944Y-102668914D01*
X162185860Y-102651677D01*
X162185862Y-102651676D01*
X162191912Y-102648069D01*
X162323266Y-102522982D01*
X162423643Y-102371902D01*
X162461554Y-102272102D01*
X162504443Y-102215524D01*
X162571112Y-102191115D01*
X162640394Y-102206625D01*
X162690292Y-102257129D01*
X162698900Y-102277074D01*
X162735918Y-102388353D01*
X162739565Y-102394375D01*
X162739566Y-102394377D01*
X162817452Y-102522982D01*
X162829880Y-102543504D01*
X162955882Y-102673982D01*
X162961778Y-102677840D01*
X163090353Y-102761977D01*
X163107659Y-102773302D01*
X163114263Y-102775758D01*
X163114265Y-102775759D01*
X163271058Y-102834070D01*
X163271060Y-102834070D01*
X163277668Y-102836528D01*
X163361495Y-102847713D01*
X163450480Y-102859587D01*
X163450484Y-102859587D01*
X163457461Y-102860518D01*
X163464472Y-102859880D01*
X163464476Y-102859880D01*
X163606959Y-102846912D01*
X163638100Y-102844078D01*
X163644802Y-102841900D01*
X163644804Y-102841900D01*
X163803909Y-102790204D01*
X163803912Y-102790203D01*
X163810608Y-102788027D01*
X163914287Y-102726222D01*
X163960360Y-102698757D01*
X163960362Y-102698756D01*
X163966412Y-102695149D01*
X164097766Y-102570062D01*
X164198143Y-102418982D01*
X164248505Y-102286404D01*
X164260055Y-102256000D01*
X164260056Y-102255998D01*
X164262555Y-102249418D01*
X164267218Y-102216240D01*
X164287248Y-102073719D01*
X164287248Y-102073716D01*
X164287799Y-102069797D01*
X164288116Y-102047080D01*
X164267897Y-101866825D01*
X164265377Y-101859588D01*
X164210564Y-101702186D01*
X164210562Y-101702183D01*
X164208245Y-101695528D01*
X164112126Y-101541704D01*
X164098441Y-101527923D01*
X163989278Y-101417995D01*
X163989274Y-101417992D01*
X163984315Y-101412998D01*
X163973197Y-101405942D01*
X163918003Y-101370915D01*
X163831166Y-101315807D01*
X163743125Y-101284457D01*
X163666925Y-101257323D01*
X163666920Y-101257322D01*
X163660290Y-101254961D01*
X163653302Y-101254128D01*
X163653299Y-101254127D01*
X163530198Y-101239448D01*
X163480180Y-101233484D01*
X163473177Y-101234220D01*
X163473176Y-101234220D01*
X163306788Y-101251708D01*
X163306786Y-101251709D01*
X163299788Y-101252444D01*
X163128079Y-101310898D01*
X163068914Y-101347297D01*
X162979595Y-101402246D01*
X162979592Y-101402248D01*
X162973588Y-101405942D01*
X162968553Y-101410873D01*
X162968550Y-101410875D01*
X162860066Y-101517111D01*
X162843993Y-101532851D01*
X162745735Y-101685318D01*
X162743326Y-101691938D01*
X162743324Y-101691941D01*
X162713878Y-101772843D01*
X162671783Y-101830014D01*
X162605462Y-101855352D01*
X162535970Y-101840811D01*
X162485372Y-101791008D01*
X162476492Y-101771201D01*
X162433745Y-101648448D01*
X162337626Y-101494624D01*
X162294678Y-101451375D01*
X162214778Y-101370915D01*
X162214774Y-101370912D01*
X162209815Y-101365918D01*
X162198697Y-101358862D01*
X162123117Y-101310898D01*
X162056666Y-101268727D01*
X162024640Y-101257323D01*
X161892425Y-101210243D01*
X161892420Y-101210242D01*
X161885790Y-101207881D01*
X161878802Y-101207048D01*
X161878799Y-101207047D01*
X161755698Y-101192368D01*
X161705680Y-101186404D01*
X161698677Y-101187140D01*
X161698676Y-101187140D01*
X161532288Y-101204628D01*
X161532286Y-101204629D01*
X161525288Y-101205364D01*
X161353579Y-101263818D01*
X161347575Y-101267512D01*
X161205095Y-101355166D01*
X161205092Y-101355168D01*
X161199088Y-101358862D01*
X161194053Y-101363793D01*
X161194050Y-101363795D01*
X161074525Y-101480843D01*
X161069493Y-101485771D01*
X160971235Y-101638238D01*
X160968826Y-101644858D01*
X160968824Y-101644861D01*
X160915631Y-101791008D01*
X160909197Y-101808685D01*
X160886463Y-101988640D01*
X152452356Y-101988640D01*
X152444852Y-101897361D01*
X152390431Y-101680702D01*
X152301354Y-101475840D01*
X152237912Y-101377773D01*
X152182822Y-101292617D01*
X152182820Y-101292614D01*
X152180014Y-101288277D01*
X152029670Y-101123051D01*
X152025619Y-101119852D01*
X152025615Y-101119848D01*
X151858414Y-100987800D01*
X151858410Y-100987798D01*
X151854359Y-100984598D01*
X151813053Y-100961796D01*
X151763084Y-100911364D01*
X151748312Y-100841921D01*
X151773428Y-100775516D01*
X151800780Y-100748909D01*
X151844603Y-100717650D01*
X151979860Y-100621173D01*
X152138096Y-100463489D01*
X152158072Y-100435690D01*
X152263737Y-100288640D01*
X153886463Y-100288640D01*
X153904163Y-100469160D01*
X153961418Y-100641273D01*
X153965065Y-100647295D01*
X153965066Y-100647297D01*
X154042718Y-100775516D01*
X154055380Y-100796424D01*
X154060269Y-100801487D01*
X154060270Y-100801488D01*
X154073985Y-100815690D01*
X154181382Y-100926902D01*
X154187278Y-100930760D01*
X154319360Y-101017192D01*
X154333159Y-101026222D01*
X154339763Y-101028678D01*
X154339765Y-101028679D01*
X154496558Y-101086990D01*
X154496560Y-101086990D01*
X154503168Y-101089448D01*
X154582250Y-101100000D01*
X154675980Y-101112507D01*
X154675984Y-101112507D01*
X154682961Y-101113438D01*
X154689972Y-101112800D01*
X154689976Y-101112800D01*
X154832459Y-101099832D01*
X154863600Y-101096998D01*
X154870302Y-101094820D01*
X154870304Y-101094820D01*
X155029409Y-101043124D01*
X155029412Y-101043123D01*
X155036108Y-101040947D01*
X155123853Y-100988640D01*
X158986463Y-100988640D01*
X159004163Y-101169160D01*
X159061418Y-101341273D01*
X159065065Y-101347295D01*
X159065066Y-101347297D01*
X159151264Y-101489627D01*
X159155380Y-101496424D01*
X159281382Y-101626902D01*
X159319242Y-101651677D01*
X159418350Y-101716531D01*
X159433159Y-101726222D01*
X159439763Y-101728678D01*
X159439765Y-101728679D01*
X159596558Y-101786990D01*
X159596560Y-101786990D01*
X159603168Y-101789448D01*
X159686995Y-101800633D01*
X159775980Y-101812507D01*
X159775984Y-101812507D01*
X159782961Y-101813438D01*
X159789972Y-101812800D01*
X159789976Y-101812800D01*
X159932459Y-101799832D01*
X159963600Y-101796998D01*
X159970302Y-101794820D01*
X159970304Y-101794820D01*
X160129409Y-101743124D01*
X160129412Y-101743123D01*
X160136108Y-101740947D01*
X160280121Y-101655098D01*
X160285860Y-101651677D01*
X160285862Y-101651676D01*
X160291912Y-101648069D01*
X160423266Y-101522982D01*
X160523643Y-101371902D01*
X160588055Y-101202338D01*
X160590191Y-101187140D01*
X160612748Y-101026639D01*
X160612748Y-101026636D01*
X160613299Y-101022717D01*
X160613616Y-101000000D01*
X160612342Y-100988640D01*
X165186463Y-100988640D01*
X165204163Y-101169160D01*
X165261418Y-101341273D01*
X165265065Y-101347295D01*
X165265066Y-101347297D01*
X165351264Y-101489627D01*
X165355380Y-101496424D01*
X165481382Y-101626902D01*
X165519242Y-101651677D01*
X165618350Y-101716531D01*
X165633159Y-101726222D01*
X165639763Y-101728678D01*
X165639765Y-101728679D01*
X165796558Y-101786990D01*
X165796560Y-101786990D01*
X165803168Y-101789448D01*
X165886995Y-101800633D01*
X165975980Y-101812507D01*
X165975984Y-101812507D01*
X165982961Y-101813438D01*
X165989972Y-101812800D01*
X165989976Y-101812800D01*
X166132459Y-101799832D01*
X166163600Y-101796998D01*
X166170302Y-101794820D01*
X166170304Y-101794820D01*
X166329409Y-101743124D01*
X166329412Y-101743123D01*
X166336108Y-101740947D01*
X166480121Y-101655098D01*
X166485860Y-101651677D01*
X166485862Y-101651676D01*
X166491912Y-101648069D01*
X166623266Y-101522982D01*
X166723643Y-101371902D01*
X166788055Y-101202338D01*
X166790191Y-101187140D01*
X166812748Y-101026639D01*
X166812748Y-101026636D01*
X166813299Y-101022717D01*
X166813616Y-101000000D01*
X166793397Y-100819745D01*
X166789773Y-100809338D01*
X166736064Y-100655106D01*
X166736062Y-100655103D01*
X166733745Y-100648448D01*
X166713264Y-100615671D01*
X166641359Y-100500598D01*
X166637626Y-100494624D01*
X166602540Y-100459292D01*
X166514778Y-100370915D01*
X166514774Y-100370912D01*
X166509815Y-100365918D01*
X166498697Y-100358862D01*
X166434967Y-100318418D01*
X166356666Y-100268727D01*
X166327463Y-100258328D01*
X166192425Y-100210243D01*
X166192420Y-100210242D01*
X166185790Y-100207881D01*
X166178802Y-100207048D01*
X166178799Y-100207047D01*
X166055698Y-100192368D01*
X166005680Y-100186404D01*
X165998677Y-100187140D01*
X165998676Y-100187140D01*
X165832288Y-100204628D01*
X165832286Y-100204629D01*
X165825288Y-100205364D01*
X165653579Y-100263818D01*
X165647575Y-100267512D01*
X165505095Y-100355166D01*
X165505092Y-100355168D01*
X165499088Y-100358862D01*
X165494053Y-100363793D01*
X165494050Y-100363795D01*
X165385069Y-100470518D01*
X165369493Y-100485771D01*
X165271235Y-100638238D01*
X165268826Y-100644858D01*
X165268824Y-100644861D01*
X165211606Y-100802066D01*
X165209197Y-100808685D01*
X165186463Y-100988640D01*
X160612342Y-100988640D01*
X160593397Y-100819745D01*
X160589773Y-100809338D01*
X160536064Y-100655106D01*
X160536062Y-100655103D01*
X160533745Y-100648448D01*
X160513264Y-100615671D01*
X160441359Y-100500598D01*
X160437626Y-100494624D01*
X160402540Y-100459292D01*
X160314778Y-100370915D01*
X160314774Y-100370912D01*
X160309815Y-100365918D01*
X160298697Y-100358862D01*
X160234967Y-100318418D01*
X160156666Y-100268727D01*
X160127463Y-100258328D01*
X159992425Y-100210243D01*
X159992420Y-100210242D01*
X159985790Y-100207881D01*
X159978802Y-100207048D01*
X159978799Y-100207047D01*
X159855698Y-100192368D01*
X159805680Y-100186404D01*
X159798677Y-100187140D01*
X159798676Y-100187140D01*
X159632288Y-100204628D01*
X159632286Y-100204629D01*
X159625288Y-100205364D01*
X159453579Y-100263818D01*
X159447575Y-100267512D01*
X159305095Y-100355166D01*
X159305092Y-100355168D01*
X159299088Y-100358862D01*
X159294053Y-100363793D01*
X159294050Y-100363795D01*
X159185069Y-100470518D01*
X159169493Y-100485771D01*
X159071235Y-100638238D01*
X159068826Y-100644858D01*
X159068824Y-100644861D01*
X159011606Y-100802066D01*
X159009197Y-100808685D01*
X158986463Y-100988640D01*
X155123853Y-100988640D01*
X155135586Y-100981646D01*
X155185860Y-100951677D01*
X155185862Y-100951676D01*
X155191912Y-100948069D01*
X155323266Y-100822982D01*
X155423643Y-100671902D01*
X155488055Y-100502338D01*
X155489551Y-100491693D01*
X155512748Y-100326639D01*
X155512748Y-100326636D01*
X155513299Y-100322717D01*
X155513616Y-100300000D01*
X155493397Y-100119745D01*
X155491080Y-100113091D01*
X155436064Y-99955106D01*
X155436062Y-99955103D01*
X155433745Y-99948448D01*
X155337626Y-99794624D01*
X155328835Y-99785771D01*
X155214778Y-99670915D01*
X155214774Y-99670912D01*
X155209815Y-99665918D01*
X155199214Y-99659190D01*
X155150538Y-99628300D01*
X155056666Y-99568727D01*
X155009273Y-99551851D01*
X154892425Y-99510243D01*
X154892420Y-99510242D01*
X154885790Y-99507881D01*
X154878802Y-99507048D01*
X154878799Y-99507047D01*
X154755698Y-99492368D01*
X154705680Y-99486404D01*
X154698677Y-99487140D01*
X154698676Y-99487140D01*
X154532288Y-99504628D01*
X154532286Y-99504629D01*
X154525288Y-99505364D01*
X154353579Y-99563818D01*
X154313848Y-99588261D01*
X154205095Y-99655166D01*
X154205092Y-99655168D01*
X154199088Y-99658862D01*
X154194053Y-99663793D01*
X154194050Y-99663795D01*
X154083286Y-99772264D01*
X154069493Y-99785771D01*
X153971235Y-99938238D01*
X153968826Y-99944858D01*
X153968824Y-99944861D01*
X153911606Y-100102066D01*
X153909197Y-100108685D01*
X153886463Y-100288640D01*
X152263737Y-100288640D01*
X152265435Y-100286277D01*
X152268453Y-100282077D01*
X152273184Y-100272506D01*
X152365136Y-100086453D01*
X152365137Y-100086451D01*
X152367430Y-100081811D01*
X152409331Y-99943898D01*
X152430865Y-99873023D01*
X152430865Y-99873021D01*
X152432370Y-99868069D01*
X152461529Y-99646590D01*
X152462871Y-99591676D01*
X152463074Y-99583365D01*
X152463074Y-99583361D01*
X152463156Y-99580000D01*
X152444852Y-99357361D01*
X152402472Y-99188640D01*
X158086463Y-99188640D01*
X158104163Y-99369160D01*
X158161418Y-99541273D01*
X158165065Y-99547295D01*
X158165066Y-99547297D01*
X158244687Y-99678767D01*
X158255380Y-99696424D01*
X158260269Y-99701487D01*
X158260270Y-99701488D01*
X158285719Y-99727841D01*
X158381382Y-99826902D01*
X158406305Y-99843211D01*
X158505142Y-99907888D01*
X158533159Y-99926222D01*
X158539763Y-99928678D01*
X158539765Y-99928679D01*
X158696558Y-99986990D01*
X158696560Y-99986990D01*
X158703168Y-99989448D01*
X158786995Y-100000633D01*
X158875980Y-100012507D01*
X158875984Y-100012507D01*
X158882961Y-100013438D01*
X158889972Y-100012800D01*
X158889976Y-100012800D01*
X159032459Y-99999832D01*
X159063600Y-99996998D01*
X159070302Y-99994820D01*
X159070304Y-99994820D01*
X159229409Y-99943124D01*
X159229412Y-99943123D01*
X159236108Y-99940947D01*
X159332513Y-99883478D01*
X159385860Y-99851677D01*
X159385862Y-99851676D01*
X159391912Y-99848069D01*
X159523266Y-99722982D01*
X159623643Y-99571902D01*
X159679286Y-99425422D01*
X159685555Y-99408920D01*
X159685556Y-99408918D01*
X159688055Y-99402338D01*
X159689035Y-99395366D01*
X159712748Y-99226639D01*
X159712748Y-99226636D01*
X159713299Y-99222717D01*
X159713616Y-99200000D01*
X159693397Y-99019745D01*
X159690880Y-99012516D01*
X159636064Y-98855106D01*
X159636062Y-98855103D01*
X159633745Y-98848448D01*
X159557489Y-98726411D01*
X159541359Y-98700598D01*
X159537626Y-98694624D01*
X159508520Y-98665314D01*
X159414778Y-98570915D01*
X159414774Y-98570912D01*
X159409815Y-98565918D01*
X159401491Y-98560635D01*
X159320000Y-98508920D01*
X159256666Y-98468727D01*
X159188904Y-98444598D01*
X159092425Y-98410243D01*
X159092420Y-98410242D01*
X159085790Y-98407881D01*
X159078802Y-98407048D01*
X159078799Y-98407047D01*
X158955698Y-98392368D01*
X158905680Y-98386404D01*
X158898677Y-98387140D01*
X158898676Y-98387140D01*
X158732288Y-98404628D01*
X158732286Y-98404629D01*
X158725288Y-98405364D01*
X158553579Y-98463818D01*
X158547575Y-98467512D01*
X158405095Y-98555166D01*
X158405092Y-98555168D01*
X158399088Y-98558862D01*
X158394053Y-98563793D01*
X158394050Y-98563795D01*
X158277660Y-98677773D01*
X158269493Y-98685771D01*
X158171235Y-98838238D01*
X158168826Y-98844858D01*
X158168824Y-98844861D01*
X158129946Y-98951677D01*
X158109197Y-99008685D01*
X158086463Y-99188640D01*
X152402472Y-99188640D01*
X152390431Y-99140702D01*
X152301354Y-98935840D01*
X152261906Y-98874862D01*
X152182822Y-98752617D01*
X152182820Y-98752614D01*
X152180014Y-98748277D01*
X152029670Y-98583051D01*
X152025619Y-98579852D01*
X152025615Y-98579848D01*
X151858414Y-98447800D01*
X151858410Y-98447798D01*
X151854359Y-98444598D01*
X151658789Y-98336638D01*
X151653920Y-98334914D01*
X151653916Y-98334912D01*
X151523247Y-98288640D01*
X159786463Y-98288640D01*
X159804163Y-98469160D01*
X159861418Y-98641273D01*
X159865065Y-98647295D01*
X159865066Y-98647297D01*
X159949651Y-98786964D01*
X159955380Y-98796424D01*
X159960269Y-98801487D01*
X159960270Y-98801488D01*
X159999845Y-98842469D01*
X160081382Y-98926902D01*
X160106305Y-98943211D01*
X160220329Y-99017826D01*
X160233159Y-99026222D01*
X160239763Y-99028678D01*
X160239765Y-99028679D01*
X160396558Y-99086990D01*
X160396560Y-99086990D01*
X160403168Y-99089448D01*
X160486995Y-99100633D01*
X160575980Y-99112507D01*
X160575984Y-99112507D01*
X160582961Y-99113438D01*
X160589972Y-99112800D01*
X160589976Y-99112800D01*
X160732459Y-99099832D01*
X160763600Y-99096998D01*
X160770302Y-99094820D01*
X160770304Y-99094820D01*
X160929409Y-99043124D01*
X160929412Y-99043123D01*
X160936108Y-99040947D01*
X161091912Y-98948069D01*
X161223266Y-98822982D01*
X161323643Y-98671902D01*
X161388055Y-98502338D01*
X161389035Y-98495366D01*
X161412748Y-98326639D01*
X161412748Y-98326636D01*
X161413299Y-98322717D01*
X161413616Y-98300000D01*
X161393397Y-98119745D01*
X161391080Y-98113091D01*
X161336064Y-97955106D01*
X161336062Y-97955103D01*
X161333745Y-97948448D01*
X161322541Y-97930518D01*
X161241359Y-97800598D01*
X161237626Y-97794624D01*
X161213688Y-97770518D01*
X161114778Y-97670915D01*
X161114774Y-97670912D01*
X161109815Y-97665918D01*
X161098697Y-97658862D01*
X161050538Y-97628300D01*
X160956666Y-97568727D01*
X160893810Y-97546345D01*
X160792425Y-97510243D01*
X160792420Y-97510242D01*
X160785790Y-97507881D01*
X160778802Y-97507048D01*
X160778799Y-97507047D01*
X160655698Y-97492368D01*
X160605680Y-97486404D01*
X160598677Y-97487140D01*
X160598676Y-97487140D01*
X160432288Y-97504628D01*
X160432286Y-97504629D01*
X160425288Y-97505364D01*
X160253579Y-97563818D01*
X160247575Y-97567512D01*
X160105095Y-97655166D01*
X160105092Y-97655168D01*
X160099088Y-97658862D01*
X160094053Y-97663793D01*
X160094050Y-97663795D01*
X159985069Y-97770518D01*
X159969493Y-97785771D01*
X159871235Y-97938238D01*
X159868826Y-97944858D01*
X159868824Y-97944861D01*
X159853321Y-97987455D01*
X159809197Y-98108685D01*
X159786463Y-98288640D01*
X151523247Y-98288640D01*
X151453087Y-98263795D01*
X151453083Y-98263794D01*
X151448212Y-98262069D01*
X151443119Y-98261162D01*
X151443116Y-98261161D01*
X151233373Y-98223800D01*
X151233367Y-98223799D01*
X151228284Y-98222894D01*
X151154452Y-98221992D01*
X151010081Y-98220228D01*
X151010079Y-98220228D01*
X151004911Y-98220165D01*
X150784091Y-98253955D01*
X150571756Y-98323357D01*
X150541443Y-98339137D01*
X150409864Y-98407633D01*
X150373607Y-98426507D01*
X150369474Y-98429610D01*
X150369471Y-98429612D01*
X150202249Y-98555166D01*
X150194965Y-98560635D01*
X150040629Y-98722138D01*
X150037715Y-98726410D01*
X150037714Y-98726411D01*
X149975843Y-98817111D01*
X149914743Y-98906680D01*
X149899003Y-98940590D01*
X149826401Y-99096998D01*
X149820688Y-99109305D01*
X149760989Y-99324570D01*
X149737251Y-99546695D01*
X149737548Y-99551848D01*
X149737548Y-99551851D01*
X149744003Y-99663795D01*
X149750110Y-99769715D01*
X149751247Y-99774761D01*
X149751248Y-99774767D01*
X149762998Y-99826902D01*
X149799222Y-99987639D01*
X149845686Y-100102066D01*
X149870496Y-100163166D01*
X149883266Y-100194616D01*
X149910813Y-100239568D01*
X149988240Y-100365918D01*
X149999987Y-100385088D01*
X150146250Y-100553938D01*
X150318126Y-100696632D01*
X150388595Y-100737811D01*
X150391445Y-100739476D01*
X150440169Y-100791114D01*
X150453240Y-100860897D01*
X150426509Y-100926669D01*
X150386055Y-100960027D01*
X150373607Y-100966507D01*
X150369474Y-100969610D01*
X150369471Y-100969612D01*
X150199809Y-101096998D01*
X150194965Y-101100635D01*
X150191393Y-101104373D01*
X150047488Y-101254961D01*
X150040629Y-101262138D01*
X150037715Y-101266410D01*
X150037714Y-101266411D01*
X149991206Y-101334590D01*
X149914743Y-101446680D01*
X149877031Y-101527923D01*
X149823517Y-101643211D01*
X149820688Y-101649305D01*
X149760989Y-101864570D01*
X149737251Y-102086695D01*
X149737548Y-102091848D01*
X149737548Y-102091851D01*
X149743011Y-102186590D01*
X149750110Y-102309715D01*
X149751247Y-102314761D01*
X149751248Y-102314767D01*
X149764261Y-102372506D01*
X149799222Y-102527639D01*
X149846151Y-102643211D01*
X149879858Y-102726222D01*
X149883266Y-102734616D01*
X149910813Y-102779568D01*
X149994219Y-102915675D01*
X149999987Y-102925088D01*
X150146250Y-103093938D01*
X150318126Y-103236632D01*
X150361797Y-103262151D01*
X150391445Y-103279476D01*
X150440169Y-103331114D01*
X150453240Y-103400897D01*
X150426509Y-103466669D01*
X150386055Y-103500027D01*
X150373607Y-103506507D01*
X150369474Y-103509610D01*
X150369471Y-103509612D01*
X150199100Y-103637530D01*
X150194965Y-103640635D01*
X150040629Y-103802138D01*
X150037715Y-103806410D01*
X150037714Y-103806411D01*
X149989044Y-103877759D01*
X149914743Y-103986680D01*
X149899003Y-104020590D01*
X149823576Y-104183084D01*
X149820688Y-104189305D01*
X149760989Y-104404570D01*
X149737251Y-104626695D01*
X148388448Y-104626695D01*
X148455544Y-104482808D01*
X148455545Y-104482806D01*
X148457867Y-104477826D01*
X148459455Y-104471902D01*
X148516834Y-104257759D01*
X148516834Y-104257757D01*
X148518258Y-104252444D01*
X148538594Y-104020000D01*
X148518258Y-103787556D01*
X148508355Y-103750598D01*
X148459290Y-103567484D01*
X148459289Y-103567482D01*
X148457867Y-103562174D01*
X148454599Y-103555166D01*
X148361582Y-103355690D01*
X148361579Y-103355685D01*
X148359256Y-103350703D01*
X148334618Y-103315516D01*
X148228581Y-103164079D01*
X148228579Y-103164076D01*
X148225422Y-103159568D01*
X148060432Y-102994578D01*
X148055924Y-102991421D01*
X148055921Y-102991419D01*
X147873801Y-102863898D01*
X147869297Y-102860744D01*
X147865293Y-102858877D01*
X147816531Y-102807736D01*
X147803095Y-102738023D01*
X147829482Y-102672112D01*
X147865188Y-102641172D01*
X147869297Y-102639256D01*
X148021868Y-102532425D01*
X148055921Y-102508581D01*
X148055924Y-102508579D01*
X148060432Y-102505422D01*
X148225422Y-102340432D01*
X148245146Y-102312264D01*
X148356099Y-102153806D01*
X148356102Y-102153801D01*
X148359256Y-102149297D01*
X148361579Y-102144315D01*
X148361582Y-102144310D01*
X148455544Y-101942808D01*
X148455545Y-101942806D01*
X148457867Y-101937826D01*
X148470055Y-101892342D01*
X148516834Y-101717759D01*
X148516834Y-101717757D01*
X148518258Y-101712444D01*
X148538594Y-101480000D01*
X148518258Y-101247556D01*
X148514685Y-101234220D01*
X148459290Y-101027484D01*
X148459289Y-101027482D01*
X148457867Y-101022174D01*
X148439182Y-100982104D01*
X148361582Y-100815690D01*
X148361579Y-100815685D01*
X148359256Y-100810703D01*
X148356099Y-100806194D01*
X148228581Y-100624079D01*
X148228579Y-100624076D01*
X148225422Y-100619568D01*
X148060432Y-100454578D01*
X148055924Y-100451421D01*
X148055921Y-100451419D01*
X147873806Y-100323901D01*
X147873804Y-100323900D01*
X147869297Y-100320744D01*
X147864315Y-100318421D01*
X147864310Y-100318418D01*
X147662808Y-100224456D01*
X147662806Y-100224455D01*
X147657826Y-100222133D01*
X147652518Y-100220711D01*
X147652516Y-100220710D01*
X147437759Y-100163166D01*
X147437757Y-100163166D01*
X147432444Y-100161742D01*
X147200000Y-100141406D01*
X146967556Y-100161742D01*
X146962243Y-100163166D01*
X146962241Y-100163166D01*
X146747484Y-100220710D01*
X146747482Y-100220711D01*
X146742174Y-100222133D01*
X146737194Y-100224455D01*
X146737192Y-100224456D01*
X146535690Y-100318418D01*
X146535685Y-100318421D01*
X146530703Y-100320744D01*
X146526196Y-100323900D01*
X146526194Y-100323901D01*
X146344079Y-100451419D01*
X146344076Y-100451421D01*
X146339568Y-100454578D01*
X146174578Y-100619568D01*
X146171421Y-100624076D01*
X146171419Y-100624079D01*
X146155162Y-100647297D01*
X146040744Y-100810703D01*
X146038877Y-100814707D01*
X145987736Y-100863469D01*
X145918023Y-100876905D01*
X145852112Y-100850518D01*
X145821172Y-100814812D01*
X145819256Y-100810703D01*
X145704838Y-100647297D01*
X145688581Y-100624079D01*
X145688579Y-100624076D01*
X145685422Y-100619568D01*
X145520432Y-100454578D01*
X145515924Y-100451421D01*
X145515921Y-100451419D01*
X145333806Y-100323901D01*
X145333804Y-100323900D01*
X145329297Y-100320744D01*
X145324315Y-100318421D01*
X145324310Y-100318418D01*
X145122808Y-100224456D01*
X145122806Y-100224455D01*
X145117826Y-100222133D01*
X145112518Y-100220711D01*
X145112516Y-100220710D01*
X144897759Y-100163166D01*
X144897757Y-100163166D01*
X144892444Y-100161742D01*
X144660000Y-100141406D01*
X144427556Y-100161742D01*
X144422243Y-100163166D01*
X144422241Y-100163166D01*
X144207484Y-100220710D01*
X144207482Y-100220711D01*
X144202174Y-100222133D01*
X144197194Y-100224455D01*
X144197192Y-100224456D01*
X143995690Y-100318418D01*
X143995685Y-100318421D01*
X143990703Y-100320744D01*
X143986196Y-100323900D01*
X143986194Y-100323901D01*
X143804079Y-100451419D01*
X143804076Y-100451421D01*
X143799568Y-100454578D01*
X143634578Y-100619568D01*
X143631421Y-100624076D01*
X143631419Y-100624079D01*
X143615162Y-100647297D01*
X143500744Y-100810703D01*
X143498877Y-100814707D01*
X143447736Y-100863469D01*
X143378023Y-100876905D01*
X143312112Y-100850518D01*
X143281172Y-100814812D01*
X143279256Y-100810703D01*
X143164838Y-100647297D01*
X143148581Y-100624079D01*
X143148579Y-100624076D01*
X143145422Y-100619568D01*
X142980432Y-100454578D01*
X142975924Y-100451421D01*
X142975921Y-100451419D01*
X142793806Y-100323901D01*
X142793804Y-100323900D01*
X142789297Y-100320744D01*
X142784315Y-100318421D01*
X142784310Y-100318418D01*
X142582808Y-100224456D01*
X142582806Y-100224455D01*
X142577826Y-100222133D01*
X142572518Y-100220711D01*
X142572516Y-100220710D01*
X142357759Y-100163166D01*
X142357757Y-100163166D01*
X142352444Y-100161742D01*
X142120000Y-100141406D01*
X141887556Y-100161742D01*
X141882243Y-100163166D01*
X141882241Y-100163166D01*
X141667111Y-100220810D01*
X141596135Y-100219120D01*
X141537339Y-100179326D01*
X141509391Y-100114062D01*
X141508500Y-100099103D01*
X141508500Y-99780897D01*
X141528502Y-99712776D01*
X141582158Y-99666283D01*
X141652432Y-99656179D01*
X141667111Y-99659190D01*
X141882241Y-99716834D01*
X141882243Y-99716834D01*
X141887556Y-99718258D01*
X142120000Y-99738594D01*
X142352444Y-99718258D01*
X142357757Y-99716834D01*
X142357759Y-99716834D01*
X142572516Y-99659290D01*
X142572518Y-99659289D01*
X142577826Y-99657867D01*
X142582808Y-99655544D01*
X142784310Y-99561582D01*
X142784315Y-99561579D01*
X142789297Y-99559256D01*
X142793806Y-99556099D01*
X142975921Y-99428581D01*
X142975924Y-99428579D01*
X142980432Y-99425422D01*
X143145422Y-99260432D01*
X143150777Y-99252785D01*
X143251242Y-99109305D01*
X143279256Y-99069297D01*
X143281123Y-99065293D01*
X143332264Y-99016531D01*
X143401977Y-99003095D01*
X143467888Y-99029482D01*
X143498828Y-99065188D01*
X143500744Y-99069297D01*
X143528758Y-99109305D01*
X143629224Y-99252785D01*
X143634578Y-99260432D01*
X143799568Y-99425422D01*
X143804076Y-99428579D01*
X143804079Y-99428581D01*
X143986194Y-99556099D01*
X143990703Y-99559256D01*
X143995685Y-99561579D01*
X143995690Y-99561582D01*
X144197192Y-99655544D01*
X144202174Y-99657867D01*
X144207482Y-99659289D01*
X144207484Y-99659290D01*
X144422241Y-99716834D01*
X144422243Y-99716834D01*
X144427556Y-99718258D01*
X144660000Y-99738594D01*
X144892444Y-99718258D01*
X144897757Y-99716834D01*
X144897759Y-99716834D01*
X145112516Y-99659290D01*
X145112518Y-99659289D01*
X145117826Y-99657867D01*
X145122808Y-99655544D01*
X145324310Y-99561582D01*
X145324315Y-99561579D01*
X145329297Y-99559256D01*
X145333806Y-99556099D01*
X145515921Y-99428581D01*
X145515924Y-99428579D01*
X145520432Y-99425422D01*
X145664108Y-99281746D01*
X145726420Y-99247720D01*
X145797235Y-99252785D01*
X145854071Y-99295332D01*
X145872867Y-99335462D01*
X145873255Y-99335316D01*
X145876027Y-99342709D01*
X145876027Y-99342711D01*
X145917854Y-99454283D01*
X145924385Y-99471705D01*
X146011739Y-99588261D01*
X146128295Y-99675615D01*
X146264684Y-99726745D01*
X146326866Y-99733500D01*
X148073134Y-99733500D01*
X148135316Y-99726745D01*
X148271705Y-99675615D01*
X148388261Y-99588261D01*
X148475615Y-99471705D01*
X148526745Y-99335316D01*
X148533500Y-99273134D01*
X148533500Y-97526866D01*
X148526745Y-97464684D01*
X148475615Y-97328295D01*
X148388261Y-97211739D01*
X148271705Y-97124385D01*
X148203700Y-97098891D01*
X148142711Y-97076027D01*
X148142709Y-97076027D01*
X148135316Y-97073255D01*
X148135660Y-97072339D01*
X148080046Y-97040566D01*
X148047228Y-96977610D01*
X148053655Y-96906905D01*
X148081746Y-96864108D01*
X148225422Y-96720432D01*
X148244070Y-96693801D01*
X148356099Y-96533806D01*
X148356102Y-96533801D01*
X148359256Y-96529297D01*
X148361579Y-96524315D01*
X148361582Y-96524310D01*
X148455544Y-96322808D01*
X148455545Y-96322806D01*
X148457867Y-96317826D01*
X148518258Y-96092444D01*
X148538594Y-95860000D01*
X148518258Y-95627556D01*
X148457867Y-95402174D01*
X148404510Y-95287750D01*
X148393849Y-95217558D01*
X148422829Y-95152746D01*
X148482249Y-95113889D01*
X148518705Y-95108500D01*
X173100500Y-95108500D01*
X173168621Y-95128502D01*
G37*
%TD.AperFunction*%
M02*
