M48
; DRILL file {KiCad (6.0.9)} date Sun Mar 12 19:50:05 2023
; FORMAT={-:-/ absolute / metric / decimal}
; #@! TF.CreationDate,2023-03-12T19:50:05-06:00
; #@! TF.GenerationSoftware,Kicad,Pcbnew,(6.0.9)
; #@! TF.FileFunction,Plated,1,4,PTH
FMAT,2
METRIC
; #@! TA.AperFunction,Plated,PTH,ViaDrill
T1C0.300
; #@! TA.AperFunction,Plated,PTH,ComponentDrill
T2C1.000
; #@! TA.AperFunction,Plated,PTH,ComponentDrill
T3C1.100
%
G90
G05
T1
X145.375Y-111.225
X149.2Y-113.0
X152.8Y-111.1
X152.8Y-113.1
X153.9Y-102.475
X154.7Y-100.3
X155.2Y-105.7
X155.2Y-110.2
X158.2Y-104.0
X158.9Y-99.2
X158.9Y-110.3
X159.2Y-107.3
X159.8Y-101.0
X159.8Y-110.1
X160.059Y-107.175
X160.451Y-107.875
X160.55Y-104.25
X160.6Y-98.3
X161.3Y-107.875
X161.6Y-98.8
X161.7Y-102.0
X161.7Y-110.2
X163.0Y-106.6
X163.021Y-104.179
X163.475Y-102.047
X164.4Y-108.9
X164.7Y-109.8
X165.5Y-104.2
X165.5Y-106.6
X166.0Y-101.0
X167.6Y-97.5
X168.3Y-104.1
X168.7Y-103.1
X169.8Y-107.3
X171.1Y-108.7
T2
X142.9Y-113.1
X151.1Y-99.58
X151.1Y-102.12
X151.1Y-104.66
X151.1Y-107.2
X158.615Y-113.8
X161.155Y-113.8
X163.695Y-113.8
X166.235Y-113.8
X168.775Y-113.8
T3
X142.12Y-95.86
X142.12Y-98.4
X142.12Y-101.48
X142.12Y-104.02
X142.12Y-106.56
X142.12Y-109.1
X144.66Y-95.86
X144.66Y-98.4
X144.66Y-101.48
X144.66Y-104.02
X144.66Y-106.56
X144.66Y-109.1
X147.2Y-95.86
X147.2Y-98.4
X147.2Y-101.48
X147.2Y-104.02
X147.2Y-106.56
X147.2Y-109.1
X174.56Y-96.02
X174.56Y-98.56
X174.56Y-101.1
X174.56Y-103.64
X174.56Y-106.69
X174.56Y-109.23
X174.56Y-111.77
X174.56Y-114.31
X177.1Y-96.02
X177.1Y-98.56
X177.1Y-101.1
X177.1Y-103.64
X177.1Y-106.69
X177.1Y-109.23
X177.1Y-111.77
X177.1Y-114.31
X179.64Y-96.02
X179.64Y-98.56
X179.64Y-101.1
X179.64Y-103.64
X179.64Y-106.69
X179.64Y-109.23
X179.64Y-111.77
X179.64Y-114.31
T0
M30
