%TF.GenerationSoftware,KiCad,Pcbnew,(6.0.9)*%
%TF.CreationDate,2023-03-12T19:50:08-06:00*%
%TF.ProjectId,CRSFtoPWM,43525346-746f-4505-974d-2e6b69636164,rev?*%
%TF.SameCoordinates,Original*%
%TF.FileFunction,Soldermask,Top*%
%TF.FilePolarity,Negative*%
%FSLAX46Y46*%
G04 Gerber Fmt 4.6, Leading zero omitted, Abs format (unit mm)*
G04 Created by KiCad (PCBNEW (6.0.9)) date 2023-03-12 19:50:08*
%MOMM*%
%LPD*%
G01*
G04 APERTURE LIST*
G04 Aperture macros list*
%AMRoundRect*
0 Rectangle with rounded corners*
0 $1 Rounding radius*
0 $2 $3 $4 $5 $6 $7 $8 $9 X,Y pos of 4 corners*
0 Add a 4 corners polygon primitive as box body*
4,1,4,$2,$3,$4,$5,$6,$7,$8,$9,$2,$3,0*
0 Add four circle primitives for the rounded corners*
1,1,$1+$1,$2,$3*
1,1,$1+$1,$4,$5*
1,1,$1+$1,$6,$7*
1,1,$1+$1,$8,$9*
0 Add four rect primitives between the rounded corners*
20,1,$1+$1,$2,$3,$4,$5,0*
20,1,$1+$1,$4,$5,$6,$7,0*
20,1,$1+$1,$6,$7,$8,$9,0*
20,1,$1+$1,$8,$9,$2,$3,0*%
G04 Aperture macros list end*
%ADD10RoundRect,0.200000X-0.200000X-0.275000X0.200000X-0.275000X0.200000X0.275000X-0.200000X0.275000X0*%
%ADD11R,1.700000X1.700000*%
%ADD12RoundRect,0.200000X0.200000X0.275000X-0.200000X0.275000X-0.200000X-0.275000X0.200000X-0.275000X0*%
%ADD13RoundRect,0.218750X-0.218750X-0.256250X0.218750X-0.256250X0.218750X0.256250X-0.218750X0.256250X0*%
%ADD14R,1.000000X1.000000*%
%ADD15R,1.200000X0.600000*%
%ADD16RoundRect,0.140000X-0.140000X-0.170000X0.140000X-0.170000X0.140000X0.170000X-0.140000X0.170000X0*%
%ADD17RoundRect,0.225000X-0.225000X-0.250000X0.225000X-0.250000X0.225000X0.250000X-0.225000X0.250000X0*%
%ADD18R,1.650000X1.650000*%
%ADD19C,1.650000*%
%ADD20RoundRect,0.225000X0.250000X-0.225000X0.250000X0.225000X-0.250000X0.225000X-0.250000X-0.225000X0*%
%ADD21O,1.700000X1.700000*%
%ADD22RoundRect,0.140000X0.170000X-0.140000X0.170000X0.140000X-0.170000X0.140000X-0.170000X-0.140000X0*%
%ADD23RoundRect,0.225000X-0.250000X0.225000X-0.250000X-0.225000X0.250000X-0.225000X0.250000X0.225000X0*%
%ADD24RoundRect,0.200000X-0.275000X0.200000X-0.275000X-0.200000X0.275000X-0.200000X0.275000X0.200000X0*%
%ADD25RoundRect,0.140000X0.140000X0.170000X-0.140000X0.170000X-0.140000X-0.170000X0.140000X-0.170000X0*%
%ADD26R,0.300000X0.850000*%
%ADD27R,0.850000X0.300000*%
%ADD28R,3.700000X3.700000*%
%ADD29RoundRect,0.140000X-0.170000X0.140000X-0.170000X-0.140000X0.170000X-0.140000X0.170000X0.140000X0*%
%ADD30R,1.150000X0.600000*%
G04 APERTURE END LIST*
D10*
X145375000Y-113600000D03*
X147025000Y-113600000D03*
D11*
X142900000Y-113100000D03*
D12*
X166425000Y-111200000D03*
X164775000Y-111200000D03*
D13*
X168212500Y-108700000D03*
X169787500Y-108700000D03*
D14*
X166100000Y-97900000D03*
X164100000Y-97900000D03*
X164100000Y-99900000D03*
X166100000Y-99900000D03*
D15*
X156450000Y-106650000D03*
X156450000Y-104750000D03*
X153950000Y-105700000D03*
D16*
X168020000Y-107300000D03*
X168980000Y-107300000D03*
D17*
X156225000Y-110300000D03*
X157775000Y-110300000D03*
D18*
X174560000Y-106690000D03*
D19*
X177100000Y-106690000D03*
X179640000Y-106690000D03*
X174560000Y-109230000D03*
X177100000Y-109230000D03*
X179640000Y-109230000D03*
X174560000Y-111770000D03*
X177100000Y-111770000D03*
X179640000Y-111770000D03*
X174560000Y-114310000D03*
X177100000Y-114310000D03*
X179640000Y-114310000D03*
D20*
X148600000Y-113775000D03*
X148600000Y-112225000D03*
D11*
X168775000Y-113800000D03*
D21*
X166235000Y-113800000D03*
X163695000Y-113800000D03*
X161155000Y-113800000D03*
X158615000Y-113800000D03*
D12*
X161525000Y-111200000D03*
X159875000Y-111200000D03*
D22*
X154700000Y-101980000D03*
X154700000Y-101020000D03*
D23*
X154500000Y-112225000D03*
X154500000Y-113775000D03*
D24*
X162600000Y-98075000D03*
X162600000Y-99725000D03*
D18*
X147200000Y-98400000D03*
D19*
X144660000Y-98400000D03*
X142120000Y-98400000D03*
X147200000Y-95860000D03*
X144660000Y-95860000D03*
X142120000Y-95860000D03*
D25*
X160480000Y-106400000D03*
X159520000Y-106400000D03*
D15*
X158650000Y-101850000D03*
X158650000Y-100900000D03*
X158650000Y-99950000D03*
X156150000Y-99950000D03*
X156150000Y-101850000D03*
D11*
X151100000Y-107200000D03*
D21*
X151100000Y-104660000D03*
X151100000Y-102120000D03*
X151100000Y-99580000D03*
D10*
X169575000Y-101400000D03*
X171225000Y-101400000D03*
D26*
X162450000Y-107950000D03*
X162950000Y-107950000D03*
X163450000Y-107950000D03*
X163950000Y-107950000D03*
X164450000Y-107950000D03*
X164950000Y-107950000D03*
X165450000Y-107950000D03*
X165950000Y-107950000D03*
D27*
X166650000Y-107250000D03*
X166650000Y-106750000D03*
X166650000Y-106250000D03*
X166650000Y-105750000D03*
X166650000Y-105250000D03*
X166650000Y-104750000D03*
X166650000Y-104250000D03*
X166650000Y-103750000D03*
D26*
X165950000Y-103050000D03*
X165450000Y-103050000D03*
X164950000Y-103050000D03*
X164450000Y-103050000D03*
X163950000Y-103050000D03*
X163450000Y-103050000D03*
X162950000Y-103050000D03*
X162450000Y-103050000D03*
D27*
X161750000Y-103750000D03*
X161750000Y-104250000D03*
X161750000Y-104750000D03*
X161750000Y-105250000D03*
X161750000Y-105750000D03*
X161750000Y-106250000D03*
X161750000Y-106750000D03*
X161750000Y-107250000D03*
D28*
X164200000Y-105500000D03*
D12*
X166025000Y-96100000D03*
X164375000Y-96100000D03*
D23*
X158100000Y-104925000D03*
X158100000Y-106475000D03*
D29*
X167400000Y-98420000D03*
X167400000Y-99380000D03*
D18*
X147200000Y-109100000D03*
D19*
X144660000Y-109100000D03*
X142120000Y-109100000D03*
X147200000Y-106560000D03*
X144660000Y-106560000D03*
X142120000Y-106560000D03*
X147200000Y-104020000D03*
X144660000Y-104020000D03*
X142120000Y-104020000D03*
X147200000Y-101480000D03*
X144660000Y-101480000D03*
X142120000Y-101480000D03*
D25*
X160480000Y-105400000D03*
X159520000Y-105400000D03*
D30*
X150200000Y-112050000D03*
X150200000Y-113000000D03*
X150200000Y-113950000D03*
X152800000Y-113950000D03*
X152800000Y-112050000D03*
D18*
X174560000Y-96020000D03*
D19*
X177100000Y-96020000D03*
X179640000Y-96020000D03*
X174560000Y-98560000D03*
X177100000Y-98560000D03*
X179640000Y-98560000D03*
X174560000Y-101100000D03*
X177100000Y-101100000D03*
X179640000Y-101100000D03*
X174560000Y-103640000D03*
X177100000Y-103640000D03*
X179640000Y-103640000D03*
D12*
X147025000Y-112100000D03*
X145375000Y-112100000D03*
D13*
X169632500Y-103100000D03*
X171207500Y-103100000D03*
M02*
