%TF.GenerationSoftware,KiCad,Pcbnew,(6.0.9)*%
%TF.CreationDate,2023-03-12T19:50:08-06:00*%
%TF.ProjectId,CRSFtoPWM,43525346-746f-4505-974d-2e6b69636164,rev?*%
%TF.SameCoordinates,Original*%
%TF.FileFunction,Soldermask,Bot*%
%TF.FilePolarity,Negative*%
%FSLAX46Y46*%
G04 Gerber Fmt 4.6, Leading zero omitted, Abs format (unit mm)*
G04 Created by KiCad (PCBNEW (6.0.9)) date 2023-03-12 19:50:08*
%MOMM*%
%LPD*%
G01*
G04 APERTURE LIST*
%ADD10R,1.700000X1.700000*%
%ADD11R,1.650000X1.650000*%
%ADD12C,1.650000*%
%ADD13O,1.700000X1.700000*%
G04 APERTURE END LIST*
D10*
X142900000Y-113100000D03*
D11*
X174560000Y-106690000D03*
D12*
X177100000Y-106690000D03*
X179640000Y-106690000D03*
X174560000Y-109230000D03*
X177100000Y-109230000D03*
X179640000Y-109230000D03*
X174560000Y-111770000D03*
X177100000Y-111770000D03*
X179640000Y-111770000D03*
X174560000Y-114310000D03*
X177100000Y-114310000D03*
X179640000Y-114310000D03*
D10*
X168775000Y-113800000D03*
D13*
X166235000Y-113800000D03*
X163695000Y-113800000D03*
X161155000Y-113800000D03*
X158615000Y-113800000D03*
D11*
X147200000Y-98400000D03*
D12*
X144660000Y-98400000D03*
X142120000Y-98400000D03*
X147200000Y-95860000D03*
X144660000Y-95860000D03*
X142120000Y-95860000D03*
D10*
X151100000Y-107200000D03*
D13*
X151100000Y-104660000D03*
X151100000Y-102120000D03*
X151100000Y-99580000D03*
D11*
X147200000Y-109100000D03*
D12*
X144660000Y-109100000D03*
X142120000Y-109100000D03*
X147200000Y-106560000D03*
X144660000Y-106560000D03*
X142120000Y-106560000D03*
X147200000Y-104020000D03*
X144660000Y-104020000D03*
X142120000Y-104020000D03*
X147200000Y-101480000D03*
X144660000Y-101480000D03*
X142120000Y-101480000D03*
D11*
X174560000Y-96020000D03*
D12*
X177100000Y-96020000D03*
X179640000Y-96020000D03*
X174560000Y-98560000D03*
X177100000Y-98560000D03*
X179640000Y-98560000D03*
X174560000Y-101100000D03*
X177100000Y-101100000D03*
X179640000Y-101100000D03*
X174560000Y-103640000D03*
X177100000Y-103640000D03*
X179640000Y-103640000D03*
M02*
