%TF.GenerationSoftware,KiCad,Pcbnew,(6.0.9)*%
%TF.CreationDate,2023-04-09T22:29:04-06:00*%
%TF.ProjectId,CRSFtoPWM,43525346-746f-4505-974d-2e6b69636164,rev?*%
%TF.SameCoordinates,Original*%
%TF.FileFunction,Legend,Top*%
%TF.FilePolarity,Positive*%
%FSLAX46Y46*%
G04 Gerber Fmt 4.6, Leading zero omitted, Abs format (unit mm)*
G04 Created by KiCad (PCBNEW (6.0.9)) date 2023-04-09 22:29:04*
%MOMM*%
%LPD*%
G01*
G04 APERTURE LIST*
G04 Aperture macros list*
%AMRoundRect*
0 Rectangle with rounded corners*
0 $1 Rounding radius*
0 $2 $3 $4 $5 $6 $7 $8 $9 X,Y pos of 4 corners*
0 Add a 4 corners polygon primitive as box body*
4,1,4,$2,$3,$4,$5,$6,$7,$8,$9,$2,$3,0*
0 Add four circle primitives for the rounded corners*
1,1,$1+$1,$2,$3*
1,1,$1+$1,$4,$5*
1,1,$1+$1,$6,$7*
1,1,$1+$1,$8,$9*
0 Add four rect primitives between the rounded corners*
20,1,$1+$1,$2,$3,$4,$5,0*
20,1,$1+$1,$4,$5,$6,$7,0*
20,1,$1+$1,$6,$7,$8,$9,0*
20,1,$1+$1,$8,$9,$2,$3,0*%
G04 Aperture macros list end*
%ADD10C,0.160000*%
%ADD11C,0.150000*%
%ADD12C,0.120000*%
%ADD13C,0.200000*%
%ADD14C,0.250000*%
%ADD15RoundRect,0.225000X0.250000X-0.225000X0.250000X0.225000X-0.250000X0.225000X-0.250000X-0.225000X0*%
%ADD16RoundRect,0.200000X-0.200000X-0.275000X0.200000X-0.275000X0.200000X0.275000X-0.200000X0.275000X0*%
%ADD17R,1.700000X1.700000*%
%ADD18RoundRect,0.200000X0.200000X0.275000X-0.200000X0.275000X-0.200000X-0.275000X0.200000X-0.275000X0*%
%ADD19RoundRect,0.218750X-0.218750X-0.256250X0.218750X-0.256250X0.218750X0.256250X-0.218750X0.256250X0*%
%ADD20R,1.000000X1.000000*%
%ADD21R,1.200000X0.600000*%
%ADD22RoundRect,0.140000X-0.140000X-0.170000X0.140000X-0.170000X0.140000X0.170000X-0.140000X0.170000X0*%
%ADD23RoundRect,0.225000X-0.225000X-0.250000X0.225000X-0.250000X0.225000X0.250000X-0.225000X0.250000X0*%
%ADD24R,1.650000X1.650000*%
%ADD25C,1.650000*%
%ADD26O,1.700000X1.700000*%
%ADD27RoundRect,0.140000X0.170000X-0.140000X0.170000X0.140000X-0.170000X0.140000X-0.170000X-0.140000X0*%
%ADD28RoundRect,0.225000X-0.250000X0.225000X-0.250000X-0.225000X0.250000X-0.225000X0.250000X0.225000X0*%
%ADD29RoundRect,0.200000X-0.275000X0.200000X-0.275000X-0.200000X0.275000X-0.200000X0.275000X0.200000X0*%
%ADD30RoundRect,0.140000X0.140000X0.170000X-0.140000X0.170000X-0.140000X-0.170000X0.140000X-0.170000X0*%
%ADD31R,0.300000X0.850000*%
%ADD32R,0.850000X0.300000*%
%ADD33R,3.700000X3.700000*%
%ADD34RoundRect,0.140000X-0.170000X0.140000X-0.170000X-0.140000X0.170000X-0.140000X0.170000X0.140000X0*%
%ADD35R,1.150000X0.600000*%
G04 APERTURE END LIST*
D10*
G36*
X171188525Y-114873770D02*
G01*
X169988525Y-113873770D01*
X171188525Y-112873770D01*
X171188525Y-114873770D01*
G37*
X171188525Y-114873770D02*
X169988525Y-113873770D01*
X171188525Y-112873770D01*
X171188525Y-114873770D01*
X148138095Y-106052380D02*
X148709523Y-106052380D01*
X148423809Y-107052380D02*
X148423809Y-106052380D01*
X148947619Y-106052380D02*
X149614285Y-107052380D01*
X149614285Y-106052380D02*
X148947619Y-107052380D01*
X153261904Y-106800000D02*
X153166666Y-106752380D01*
X153023809Y-106752380D01*
X152880952Y-106800000D01*
X152785714Y-106895238D01*
X152738095Y-106990476D01*
X152690476Y-107180952D01*
X152690476Y-107323809D01*
X152738095Y-107514285D01*
X152785714Y-107609523D01*
X152880952Y-107704761D01*
X153023809Y-107752380D01*
X153119047Y-107752380D01*
X153261904Y-107704761D01*
X153309523Y-107657142D01*
X153309523Y-107323809D01*
X153119047Y-107323809D01*
X172366666Y-97980951D02*
X173033333Y-97980951D01*
X172604761Y-98980951D01*
X172938095Y-103238093D02*
X172461904Y-103238093D01*
X172414285Y-103714284D01*
X172461904Y-103666665D01*
X172557142Y-103619046D01*
X172795238Y-103619046D01*
X172890476Y-103666665D01*
X172938095Y-103714284D01*
X172985714Y-103809522D01*
X172985714Y-104047617D01*
X172938095Y-104142855D01*
X172890476Y-104190474D01*
X172795238Y-104238093D01*
X172557142Y-104238093D01*
X172461904Y-104190474D01*
X172414285Y-104142855D01*
X148909523Y-108552380D02*
X148433333Y-108552380D01*
X148385714Y-109028571D01*
X148433333Y-108980952D01*
X148528571Y-108933333D01*
X148766666Y-108933333D01*
X148861904Y-108980952D01*
X148909523Y-109028571D01*
X148957142Y-109123809D01*
X148957142Y-109361904D01*
X148909523Y-109457142D01*
X148861904Y-109504761D01*
X148766666Y-109552380D01*
X148528571Y-109552380D01*
X148433333Y-109504761D01*
X148385714Y-109457142D01*
X149242857Y-108552380D02*
X149576190Y-109552380D01*
X149909523Y-108552380D01*
X172604761Y-95780952D02*
X172509523Y-95733333D01*
X172461904Y-95685714D01*
X172414285Y-95590476D01*
X172414285Y-95542857D01*
X172461904Y-95447619D01*
X172509523Y-95400000D01*
X172604761Y-95352380D01*
X172795238Y-95352380D01*
X172890476Y-95400000D01*
X172938095Y-95447619D01*
X172985714Y-95542857D01*
X172985714Y-95590476D01*
X172938095Y-95685714D01*
X172890476Y-95733333D01*
X172795238Y-95780952D01*
X172604761Y-95780952D01*
X172509523Y-95828571D01*
X172461904Y-95876190D01*
X172414285Y-95971428D01*
X172414285Y-96161904D01*
X172461904Y-96257142D01*
X172509523Y-96304761D01*
X172604761Y-96352380D01*
X172795238Y-96352380D01*
X172890476Y-96304761D01*
X172938095Y-96257142D01*
X172985714Y-96161904D01*
X172985714Y-95971428D01*
X172938095Y-95876190D01*
X172890476Y-95828571D01*
X172795238Y-95780952D01*
X172890476Y-106199998D02*
X172890476Y-106866664D01*
X172652380Y-105819045D02*
X172414285Y-106533331D01*
X173033333Y-106533331D01*
X153309523Y-102652380D02*
X152976190Y-102176190D01*
X152738095Y-102652380D02*
X152738095Y-101652380D01*
X153119047Y-101652380D01*
X153214285Y-101700000D01*
X153261904Y-101747619D01*
X153309523Y-101842857D01*
X153309523Y-101985714D01*
X153261904Y-102080952D01*
X153214285Y-102128571D01*
X153119047Y-102176190D01*
X152738095Y-102176190D01*
X149209523Y-96152380D02*
X149400000Y-96152380D01*
X149495238Y-96104761D01*
X149542857Y-96057142D01*
X149638095Y-95914285D01*
X149685714Y-95723809D01*
X149685714Y-95342857D01*
X149638095Y-95247619D01*
X149590476Y-95200000D01*
X149495238Y-95152380D01*
X149304761Y-95152380D01*
X149209523Y-95200000D01*
X149161904Y-95247619D01*
X149114285Y-95342857D01*
X149114285Y-95580952D01*
X149161904Y-95676190D01*
X149209523Y-95723809D01*
X149304761Y-95771428D01*
X149495238Y-95771428D01*
X149590476Y-95723809D01*
X149638095Y-95676190D01*
X149685714Y-95580952D01*
X148614285Y-101904761D02*
X148757142Y-101952380D01*
X148995238Y-101952380D01*
X149090476Y-101904761D01*
X149138095Y-101857142D01*
X149185714Y-101761904D01*
X149185714Y-101666666D01*
X149138095Y-101571428D01*
X149090476Y-101523809D01*
X148995238Y-101476190D01*
X148804761Y-101428571D01*
X148709523Y-101380952D01*
X148661904Y-101333333D01*
X148614285Y-101238095D01*
X148614285Y-101142857D01*
X148661904Y-101047619D01*
X148709523Y-101000000D01*
X148804761Y-100952380D01*
X149042857Y-100952380D01*
X149185714Y-101000000D01*
X152714285Y-99052380D02*
X153285714Y-99052380D01*
X153000000Y-100052380D02*
X153000000Y-99052380D01*
X152666666Y-104252380D02*
X153000000Y-105252380D01*
X153333333Y-104252380D01*
X172414285Y-111219045D02*
X172461904Y-111171426D01*
X172557142Y-111123806D01*
X172795238Y-111123806D01*
X172890476Y-111171426D01*
X172938095Y-111219045D01*
X172985714Y-111314283D01*
X172985714Y-111409521D01*
X172938095Y-111552378D01*
X172366666Y-112123806D01*
X172985714Y-112123806D01*
X149209523Y-98052380D02*
X148638095Y-98052380D01*
X148923809Y-98052380D02*
X148923809Y-97052380D01*
X148828571Y-97195238D01*
X148733333Y-97290476D01*
X148638095Y-97338095D01*
X149828571Y-97052380D02*
X149923809Y-97052380D01*
X150019047Y-97100000D01*
X150066666Y-97147619D01*
X150114285Y-97242857D01*
X150161904Y-97433333D01*
X150161904Y-97671428D01*
X150114285Y-97861904D01*
X150066666Y-97957142D01*
X150019047Y-98004761D01*
X149923809Y-98052380D01*
X149828571Y-98052380D01*
X149733333Y-98004761D01*
X149685714Y-97957142D01*
X149638095Y-97861904D01*
X149590476Y-97671428D01*
X149590476Y-97433333D01*
X149638095Y-97242857D01*
X149685714Y-97147619D01*
X149733333Y-97100000D01*
X149828571Y-97052380D01*
X143938095Y-110352380D02*
X144557142Y-110352380D01*
X144223809Y-110733333D01*
X144366666Y-110733333D01*
X144461904Y-110780952D01*
X144509523Y-110828571D01*
X144557142Y-110923809D01*
X144557142Y-111161904D01*
X144509523Y-111257142D01*
X144461904Y-111304761D01*
X144366666Y-111352380D01*
X144080952Y-111352380D01*
X143985714Y-111304761D01*
X143938095Y-111257142D01*
X144842857Y-110352380D02*
X145176190Y-111352380D01*
X145509523Y-110352380D01*
X172366666Y-108495235D02*
X172985714Y-108495235D01*
X172652380Y-108876188D01*
X172795238Y-108876188D01*
X172890476Y-108923807D01*
X172938095Y-108971426D01*
X172985714Y-109066664D01*
X172985714Y-109304759D01*
X172938095Y-109399997D01*
X172890476Y-109447616D01*
X172795238Y-109495235D01*
X172509523Y-109495235D01*
X172414285Y-109447616D01*
X172366666Y-109399997D01*
X142047619Y-114252380D02*
X142380952Y-115252380D01*
X142714285Y-114252380D01*
X143047619Y-114871428D02*
X143809523Y-114871428D01*
X143428571Y-115252380D02*
X143428571Y-114490476D01*
X172985714Y-114752380D02*
X172414285Y-114752380D01*
X172700000Y-114752380D02*
X172700000Y-113752380D01*
X172604761Y-113895238D01*
X172509523Y-113990476D01*
X172414285Y-114038095D01*
X172890476Y-100609522D02*
X172700000Y-100609522D01*
X172604761Y-100657142D01*
X172557142Y-100704761D01*
X172461904Y-100847618D01*
X172414285Y-101038094D01*
X172414285Y-101419046D01*
X172461904Y-101514284D01*
X172509523Y-101561903D01*
X172604761Y-101609522D01*
X172795238Y-101609522D01*
X172890476Y-101561903D01*
X172938095Y-101514284D01*
X172985714Y-101419046D01*
X172985714Y-101180951D01*
X172938095Y-101085713D01*
X172890476Y-101038094D01*
X172795238Y-100990475D01*
X172604761Y-100990475D01*
X172509523Y-101038094D01*
X172461904Y-101085713D01*
X172414285Y-101180951D01*
D11*
X149133333Y-111557142D02*
X149085714Y-111604761D01*
X148942857Y-111652380D01*
X148847619Y-111652380D01*
X148704761Y-111604761D01*
X148609523Y-111509523D01*
X148561904Y-111414285D01*
X148514285Y-111223809D01*
X148514285Y-111080952D01*
X148561904Y-110890476D01*
X148609523Y-110795238D01*
X148704761Y-110700000D01*
X148847619Y-110652380D01*
X148942857Y-110652380D01*
X149085714Y-110700000D01*
X149133333Y-110747619D01*
X149990476Y-110985714D02*
X149990476Y-111652380D01*
X149752380Y-110604761D02*
X149514285Y-111319047D01*
X150133333Y-111319047D01*
X146033333Y-115352380D02*
X145700000Y-114876190D01*
X145461904Y-115352380D02*
X145461904Y-114352380D01*
X145842857Y-114352380D01*
X145938095Y-114400000D01*
X145985714Y-114447619D01*
X146033333Y-114542857D01*
X146033333Y-114685714D01*
X145985714Y-114780952D01*
X145938095Y-114828571D01*
X145842857Y-114876190D01*
X145461904Y-114876190D01*
X146985714Y-115352380D02*
X146414285Y-115352380D01*
X146700000Y-115352380D02*
X146700000Y-114352380D01*
X146604761Y-114495238D01*
X146509523Y-114590476D01*
X146414285Y-114638095D01*
X165733333Y-110452380D02*
X165400000Y-109976190D01*
X165161904Y-110452380D02*
X165161904Y-109452380D01*
X165542857Y-109452380D01*
X165638095Y-109500000D01*
X165685714Y-109547619D01*
X165733333Y-109642857D01*
X165733333Y-109785714D01*
X165685714Y-109880952D01*
X165638095Y-109928571D01*
X165542857Y-109976190D01*
X165161904Y-109976190D01*
X166066666Y-109452380D02*
X166733333Y-109452380D01*
X166304761Y-110452380D01*
X168933333Y-110652380D02*
X168457142Y-110652380D01*
X168457142Y-109652380D01*
X169790476Y-110652380D02*
X169219047Y-110652380D01*
X169504761Y-110652380D02*
X169504761Y-109652380D01*
X169409523Y-109795238D01*
X169314285Y-109890476D01*
X169219047Y-109938095D01*
D10*
X155838095Y-103052380D02*
X155838095Y-103861904D01*
X155885714Y-103957142D01*
X155933333Y-104004761D01*
X156028571Y-104052380D01*
X156219047Y-104052380D01*
X156314285Y-104004761D01*
X156361904Y-103957142D01*
X156409523Y-103861904D01*
X156409523Y-103052380D01*
X156838095Y-103147619D02*
X156885714Y-103100000D01*
X156980952Y-103052380D01*
X157219047Y-103052380D01*
X157314285Y-103100000D01*
X157361904Y-103147619D01*
X157409523Y-103242857D01*
X157409523Y-103338095D01*
X157361904Y-103480952D01*
X156790476Y-104052380D01*
X157409523Y-104052380D01*
D11*
X170333333Y-107657142D02*
X170285714Y-107704761D01*
X170142857Y-107752380D01*
X170047619Y-107752380D01*
X169904761Y-107704761D01*
X169809523Y-107609523D01*
X169761904Y-107514285D01*
X169714285Y-107323809D01*
X169714285Y-107180952D01*
X169761904Y-106990476D01*
X169809523Y-106895238D01*
X169904761Y-106800000D01*
X170047619Y-106752380D01*
X170142857Y-106752380D01*
X170285714Y-106800000D01*
X170333333Y-106847619D01*
X170714285Y-106847619D02*
X170761904Y-106800000D01*
X170857142Y-106752380D01*
X171095238Y-106752380D01*
X171190476Y-106800000D01*
X171238095Y-106847619D01*
X171285714Y-106942857D01*
X171285714Y-107038095D01*
X171238095Y-107180952D01*
X170666666Y-107752380D01*
X171285714Y-107752380D01*
X154933333Y-110357142D02*
X154885714Y-110404761D01*
X154742857Y-110452380D01*
X154647619Y-110452380D01*
X154504761Y-110404761D01*
X154409523Y-110309523D01*
X154361904Y-110214285D01*
X154314285Y-110023809D01*
X154314285Y-109880952D01*
X154361904Y-109690476D01*
X154409523Y-109595238D01*
X154504761Y-109500000D01*
X154647619Y-109452380D01*
X154742857Y-109452380D01*
X154885714Y-109500000D01*
X154933333Y-109547619D01*
X155266666Y-109452380D02*
X155885714Y-109452380D01*
X155552380Y-109833333D01*
X155695238Y-109833333D01*
X155790476Y-109880952D01*
X155838095Y-109928571D01*
X155885714Y-110023809D01*
X155885714Y-110261904D01*
X155838095Y-110357142D01*
X155790476Y-110404761D01*
X155695238Y-110452380D01*
X155409523Y-110452380D01*
X155314285Y-110404761D01*
X155266666Y-110357142D01*
X162933333Y-111652380D02*
X162600000Y-111176190D01*
X162361904Y-111652380D02*
X162361904Y-110652380D01*
X162742857Y-110652380D01*
X162838095Y-110700000D01*
X162885714Y-110747619D01*
X162933333Y-110842857D01*
X162933333Y-110985714D01*
X162885714Y-111080952D01*
X162838095Y-111128571D01*
X162742857Y-111176190D01*
X162361904Y-111176190D01*
X163266666Y-110652380D02*
X163885714Y-110652380D01*
X163552380Y-111033333D01*
X163695238Y-111033333D01*
X163790476Y-111080952D01*
X163838095Y-111128571D01*
X163885714Y-111223809D01*
X163885714Y-111461904D01*
X163838095Y-111557142D01*
X163790476Y-111604761D01*
X163695238Y-111652380D01*
X163409523Y-111652380D01*
X163314285Y-111604761D01*
X163266666Y-111557142D01*
X154633333Y-103557142D02*
X154585714Y-103604761D01*
X154442857Y-103652380D01*
X154347619Y-103652380D01*
X154204761Y-103604761D01*
X154109523Y-103509523D01*
X154061904Y-103414285D01*
X154014285Y-103223809D01*
X154014285Y-103080952D01*
X154061904Y-102890476D01*
X154109523Y-102795238D01*
X154204761Y-102700000D01*
X154347619Y-102652380D01*
X154442857Y-102652380D01*
X154585714Y-102700000D01*
X154633333Y-102747619D01*
X155109523Y-103652380D02*
X155300000Y-103652380D01*
X155395238Y-103604761D01*
X155442857Y-103557142D01*
X155538095Y-103414285D01*
X155585714Y-103223809D01*
X155585714Y-102842857D01*
X155538095Y-102747619D01*
X155490476Y-102700000D01*
X155395238Y-102652380D01*
X155204761Y-102652380D01*
X155109523Y-102700000D01*
X155061904Y-102747619D01*
X155014285Y-102842857D01*
X155014285Y-103080952D01*
X155061904Y-103176190D01*
X155109523Y-103223809D01*
X155204761Y-103271428D01*
X155395238Y-103271428D01*
X155490476Y-103223809D01*
X155538095Y-103176190D01*
X155585714Y-103080952D01*
X156533333Y-112057142D02*
X156485714Y-112104761D01*
X156342857Y-112152380D01*
X156247619Y-112152380D01*
X156104761Y-112104761D01*
X156009523Y-112009523D01*
X155961904Y-111914285D01*
X155914285Y-111723809D01*
X155914285Y-111580952D01*
X155961904Y-111390476D01*
X156009523Y-111295238D01*
X156104761Y-111200000D01*
X156247619Y-111152380D01*
X156342857Y-111152380D01*
X156485714Y-111200000D01*
X156533333Y-111247619D01*
X157390476Y-111152380D02*
X157200000Y-111152380D01*
X157104761Y-111200000D01*
X157057142Y-111247619D01*
X156961904Y-111390476D01*
X156914285Y-111580952D01*
X156914285Y-111961904D01*
X156961904Y-112057142D01*
X157009523Y-112104761D01*
X157104761Y-112152380D01*
X157295238Y-112152380D01*
X157390476Y-112104761D01*
X157438095Y-112057142D01*
X157485714Y-111961904D01*
X157485714Y-111723809D01*
X157438095Y-111628571D01*
X157390476Y-111580952D01*
X157295238Y-111533333D01*
X157104761Y-111533333D01*
X157009523Y-111580952D01*
X156961904Y-111628571D01*
X156914285Y-111723809D01*
X160833333Y-100352380D02*
X160500000Y-99876190D01*
X160261904Y-100352380D02*
X160261904Y-99352380D01*
X160642857Y-99352380D01*
X160738095Y-99400000D01*
X160785714Y-99447619D01*
X160833333Y-99542857D01*
X160833333Y-99685714D01*
X160785714Y-99780952D01*
X160738095Y-99828571D01*
X160642857Y-99876190D01*
X160261904Y-99876190D01*
X161738095Y-99352380D02*
X161261904Y-99352380D01*
X161214285Y-99828571D01*
X161261904Y-99780952D01*
X161357142Y-99733333D01*
X161595238Y-99733333D01*
X161690476Y-99780952D01*
X161738095Y-99828571D01*
X161785714Y-99923809D01*
X161785714Y-100161904D01*
X161738095Y-100257142D01*
X161690476Y-100304761D01*
X161595238Y-100352380D01*
X161357142Y-100352380D01*
X161261904Y-100304761D01*
X161214285Y-100257142D01*
X159833333Y-107957142D02*
X159785714Y-108004761D01*
X159642857Y-108052380D01*
X159547619Y-108052380D01*
X159404761Y-108004761D01*
X159309523Y-107909523D01*
X159261904Y-107814285D01*
X159214285Y-107623809D01*
X159214285Y-107480952D01*
X159261904Y-107290476D01*
X159309523Y-107195238D01*
X159404761Y-107100000D01*
X159547619Y-107052380D01*
X159642857Y-107052380D01*
X159785714Y-107100000D01*
X159833333Y-107147619D01*
X160785714Y-108052380D02*
X160214285Y-108052380D01*
X160500000Y-108052380D02*
X160500000Y-107052380D01*
X160404761Y-107195238D01*
X160309523Y-107290476D01*
X160214285Y-107338095D01*
D10*
X156538095Y-98052380D02*
X156538095Y-98861904D01*
X156585714Y-98957142D01*
X156633333Y-99004761D01*
X156728571Y-99052380D01*
X156919047Y-99052380D01*
X157014285Y-99004761D01*
X157061904Y-98957142D01*
X157109523Y-98861904D01*
X157109523Y-98052380D01*
X158014285Y-98385714D02*
X158014285Y-99052380D01*
X157776190Y-98004761D02*
X157538095Y-98719047D01*
X158157142Y-98719047D01*
D11*
X170353333Y-100452380D02*
X170020000Y-99976190D01*
X169781904Y-100452380D02*
X169781904Y-99452380D01*
X170162857Y-99452380D01*
X170258095Y-99500000D01*
X170305714Y-99547619D01*
X170353333Y-99642857D01*
X170353333Y-99785714D01*
X170305714Y-99880952D01*
X170258095Y-99928571D01*
X170162857Y-99976190D01*
X169781904Y-99976190D01*
X171210476Y-99452380D02*
X171020000Y-99452380D01*
X170924761Y-99500000D01*
X170877142Y-99547619D01*
X170781904Y-99690476D01*
X170734285Y-99880952D01*
X170734285Y-100261904D01*
X170781904Y-100357142D01*
X170829523Y-100404761D01*
X170924761Y-100452380D01*
X171115238Y-100452380D01*
X171210476Y-100404761D01*
X171258095Y-100357142D01*
X171305714Y-100261904D01*
X171305714Y-100023809D01*
X171258095Y-99928571D01*
X171210476Y-99880952D01*
X171115238Y-99833333D01*
X170924761Y-99833333D01*
X170829523Y-99880952D01*
X170781904Y-99928571D01*
X170734285Y-100023809D01*
X162533333Y-96452380D02*
X162200000Y-95976190D01*
X161961904Y-96452380D02*
X161961904Y-95452380D01*
X162342857Y-95452380D01*
X162438095Y-95500000D01*
X162485714Y-95547619D01*
X162533333Y-95642857D01*
X162533333Y-95785714D01*
X162485714Y-95880952D01*
X162438095Y-95928571D01*
X162342857Y-95976190D01*
X161961904Y-95976190D01*
X163390476Y-95785714D02*
X163390476Y-96452380D01*
X163152380Y-95404761D02*
X162914285Y-96119047D01*
X163533333Y-96119047D01*
X158557142Y-108166666D02*
X158604761Y-108214285D01*
X158652380Y-108357142D01*
X158652380Y-108452380D01*
X158604761Y-108595238D01*
X158509523Y-108690476D01*
X158414285Y-108738095D01*
X158223809Y-108785714D01*
X158080952Y-108785714D01*
X157890476Y-108738095D01*
X157795238Y-108690476D01*
X157700000Y-108595238D01*
X157652380Y-108452380D01*
X157652380Y-108357142D01*
X157700000Y-108214285D01*
X157747619Y-108166666D01*
X157652380Y-107833333D02*
X157652380Y-107166666D01*
X158652380Y-107595238D01*
X168633333Y-98857142D02*
X168585714Y-98904761D01*
X168442857Y-98952380D01*
X168347619Y-98952380D01*
X168204761Y-98904761D01*
X168109523Y-98809523D01*
X168061904Y-98714285D01*
X168014285Y-98523809D01*
X168014285Y-98380952D01*
X168061904Y-98190476D01*
X168109523Y-98095238D01*
X168204761Y-98000000D01*
X168347619Y-97952380D01*
X168442857Y-97952380D01*
X168585714Y-98000000D01*
X168633333Y-98047619D01*
X169204761Y-98380952D02*
X169109523Y-98333333D01*
X169061904Y-98285714D01*
X169014285Y-98190476D01*
X169014285Y-98142857D01*
X169061904Y-98047619D01*
X169109523Y-98000000D01*
X169204761Y-97952380D01*
X169395238Y-97952380D01*
X169490476Y-98000000D01*
X169538095Y-98047619D01*
X169585714Y-98142857D01*
X169585714Y-98190476D01*
X169538095Y-98285714D01*
X169490476Y-98333333D01*
X169395238Y-98380952D01*
X169204761Y-98380952D01*
X169109523Y-98428571D01*
X169061904Y-98476190D01*
X169014285Y-98571428D01*
X169014285Y-98761904D01*
X169061904Y-98857142D01*
X169109523Y-98904761D01*
X169204761Y-98952380D01*
X169395238Y-98952380D01*
X169490476Y-98904761D01*
X169538095Y-98857142D01*
X169585714Y-98761904D01*
X169585714Y-98571428D01*
X169538095Y-98476190D01*
X169490476Y-98428571D01*
X169395238Y-98380952D01*
X159833333Y-104557142D02*
X159785714Y-104604761D01*
X159642857Y-104652380D01*
X159547619Y-104652380D01*
X159404761Y-104604761D01*
X159309523Y-104509523D01*
X159261904Y-104414285D01*
X159214285Y-104223809D01*
X159214285Y-104080952D01*
X159261904Y-103890476D01*
X159309523Y-103795238D01*
X159404761Y-103700000D01*
X159547619Y-103652380D01*
X159642857Y-103652380D01*
X159785714Y-103700000D01*
X159833333Y-103747619D01*
X160738095Y-103652380D02*
X160261904Y-103652380D01*
X160214285Y-104128571D01*
X160261904Y-104080952D01*
X160357142Y-104033333D01*
X160595238Y-104033333D01*
X160690476Y-104080952D01*
X160738095Y-104128571D01*
X160785714Y-104223809D01*
X160785714Y-104461904D01*
X160738095Y-104557142D01*
X160690476Y-104604761D01*
X160595238Y-104652380D01*
X160357142Y-104652380D01*
X160261904Y-104604761D01*
X160214285Y-104557142D01*
D10*
X151638095Y-110252380D02*
X151638095Y-111061904D01*
X151685714Y-111157142D01*
X151733333Y-111204761D01*
X151828571Y-111252380D01*
X152019047Y-111252380D01*
X152114285Y-111204761D01*
X152161904Y-111157142D01*
X152209523Y-111061904D01*
X152209523Y-110252380D01*
X153209523Y-111252380D02*
X152638095Y-111252380D01*
X152923809Y-111252380D02*
X152923809Y-110252380D01*
X152828571Y-110395238D01*
X152733333Y-110490476D01*
X152638095Y-110538095D01*
D11*
X146833333Y-111452380D02*
X146500000Y-110976190D01*
X146261904Y-111452380D02*
X146261904Y-110452380D01*
X146642857Y-110452380D01*
X146738095Y-110500000D01*
X146785714Y-110547619D01*
X146833333Y-110642857D01*
X146833333Y-110785714D01*
X146785714Y-110880952D01*
X146738095Y-110928571D01*
X146642857Y-110976190D01*
X146261904Y-110976190D01*
X147214285Y-110547619D02*
X147261904Y-110500000D01*
X147357142Y-110452380D01*
X147595238Y-110452380D01*
X147690476Y-110500000D01*
X147738095Y-110547619D01*
X147785714Y-110642857D01*
X147785714Y-110738095D01*
X147738095Y-110880952D01*
X147166666Y-111452380D01*
X147785714Y-111452380D01*
X169681904Y-105152380D02*
X169681904Y-104152380D01*
X169920000Y-104152380D01*
X170062857Y-104200000D01*
X170158095Y-104295238D01*
X170205714Y-104390476D01*
X170253333Y-104580952D01*
X170253333Y-104723809D01*
X170205714Y-104914285D01*
X170158095Y-105009523D01*
X170062857Y-105104761D01*
X169920000Y-105152380D01*
X169681904Y-105152380D01*
X171205714Y-105152380D02*
X170634285Y-105152380D01*
X170920000Y-105152380D02*
X170920000Y-104152380D01*
X170824761Y-104295238D01*
X170729523Y-104390476D01*
X170634285Y-104438095D01*
D12*
X149410000Y-113340580D02*
X149410000Y-113059420D01*
X148390000Y-113340580D02*
X148390000Y-113059420D01*
X146062742Y-113177500D02*
X146537258Y-113177500D01*
X146062742Y-114222500D02*
X146537258Y-114222500D01*
X165837258Y-110677500D02*
X165362742Y-110677500D01*
X165837258Y-111722500D02*
X165362742Y-111722500D01*
X168837221Y-109210000D02*
X169162779Y-109210000D01*
X168837221Y-108190000D02*
X169162779Y-108190000D01*
D13*
X166242000Y-96962000D02*
G75*
G03*
X166242000Y-96962000I-40000J0D01*
G01*
X157050000Y-107200000D02*
X155850000Y-107200000D01*
X154900000Y-107160000D02*
X154900000Y-104240000D01*
X155500000Y-107160000D02*
X154900000Y-107160000D01*
X154900000Y-104240000D02*
X155500000Y-104240000D01*
X155500000Y-104240000D02*
X155500000Y-107160000D01*
D12*
X168392164Y-106940000D02*
X168607836Y-106940000D01*
X168392164Y-107660000D02*
X168607836Y-107660000D01*
X155059420Y-107890000D02*
X155340580Y-107890000D01*
X155059420Y-108910000D02*
X155340580Y-108910000D01*
X167505000Y-112470000D02*
X167505000Y-115130000D01*
X167505000Y-112470000D02*
X157285000Y-112470000D01*
X157285000Y-112470000D02*
X157285000Y-115130000D01*
X167505000Y-115130000D02*
X157285000Y-115130000D01*
X160937258Y-111722500D02*
X160462742Y-111722500D01*
X160937258Y-110677500D02*
X160462742Y-110677500D01*
X154340000Y-101607836D02*
X154340000Y-101392164D01*
X155060000Y-101607836D02*
X155060000Y-101392164D01*
X154690000Y-113159420D02*
X154690000Y-113440580D01*
X155710000Y-113159420D02*
X155710000Y-113440580D01*
X163122500Y-98662742D02*
X163122500Y-99137258D01*
X162077500Y-98662742D02*
X162077500Y-99137258D01*
X160107836Y-106760000D02*
X159892164Y-106760000D01*
X160107836Y-106040000D02*
X159892164Y-106040000D01*
D13*
X157700000Y-102350000D02*
X157100000Y-102350000D01*
X159250000Y-102400000D02*
X158050000Y-102400000D01*
X157100000Y-99450000D02*
X157700000Y-99450000D01*
X157700000Y-99450000D02*
X157700000Y-102350000D01*
X157100000Y-102350000D02*
X157100000Y-99450000D01*
D12*
X152430000Y-98250000D02*
X149770000Y-98250000D01*
X149770000Y-105930000D02*
X149770000Y-98250000D01*
X152430000Y-107200000D02*
X152430000Y-108530000D01*
X152430000Y-108530000D02*
X151100000Y-108530000D01*
X152430000Y-105930000D02*
X152430000Y-98250000D01*
X152430000Y-105930000D02*
X149770000Y-105930000D01*
X170162742Y-100877500D02*
X170637258Y-100877500D01*
X170162742Y-101922500D02*
X170637258Y-101922500D01*
D14*
X161825000Y-108375000D02*
G75*
G03*
X161825000Y-108375000I-125000J0D01*
G01*
D12*
X165437258Y-95577500D02*
X164962742Y-95577500D01*
X165437258Y-96622500D02*
X164962742Y-96622500D01*
X157590000Y-105559420D02*
X157590000Y-105840580D01*
X158610000Y-105559420D02*
X158610000Y-105840580D01*
X167760000Y-98792164D02*
X167760000Y-99007836D01*
X167040000Y-98792164D02*
X167040000Y-99007836D01*
X160107836Y-105760000D02*
X159892164Y-105760000D01*
X160107836Y-105040000D02*
X159892164Y-105040000D01*
D13*
X152575000Y-111800000D02*
X152575000Y-114800000D01*
X150325000Y-111800000D02*
X151475000Y-111800000D01*
X152575000Y-114800000D02*
X151825000Y-114800000D01*
X151825000Y-111800000D02*
X152575000Y-111800000D01*
X151825000Y-114800000D02*
X151825000Y-111800000D01*
D12*
X146537258Y-112722500D02*
X146062742Y-112722500D01*
X146537258Y-111677500D02*
X146062742Y-111677500D01*
X171220000Y-102365000D02*
X168935000Y-102365000D01*
X168935000Y-102365000D02*
X168935000Y-103835000D01*
X168935000Y-103835000D02*
X171220000Y-103835000D01*
%LPC*%
D15*
X148900000Y-113975000D03*
X148900000Y-112425000D03*
D16*
X145475000Y-113700000D03*
X147125000Y-113700000D03*
D17*
X142900000Y-113100000D03*
D18*
X166425000Y-111200000D03*
X164775000Y-111200000D03*
D19*
X168212500Y-108700000D03*
X169787500Y-108700000D03*
D20*
X166100000Y-97900000D03*
X164100000Y-97900000D03*
X164100000Y-99900000D03*
X166100000Y-99900000D03*
D21*
X156450000Y-106650000D03*
X156450000Y-104750000D03*
X153950000Y-105700000D03*
D22*
X168020000Y-107300000D03*
X168980000Y-107300000D03*
D23*
X154425000Y-108400000D03*
X155975000Y-108400000D03*
D24*
X174560000Y-106690000D03*
D25*
X177100000Y-106690000D03*
X179640000Y-106690000D03*
X174560000Y-109230000D03*
X177100000Y-109230000D03*
X179640000Y-109230000D03*
X174560000Y-111770000D03*
X177100000Y-111770000D03*
X179640000Y-111770000D03*
X174560000Y-114310000D03*
X177100000Y-114310000D03*
X179640000Y-114310000D03*
D17*
X168775000Y-113800000D03*
D26*
X166235000Y-113800000D03*
X163695000Y-113800000D03*
X161155000Y-113800000D03*
X158615000Y-113800000D03*
D18*
X161525000Y-111200000D03*
X159875000Y-111200000D03*
D27*
X154700000Y-101980000D03*
X154700000Y-101020000D03*
D28*
X155200000Y-112525000D03*
X155200000Y-114075000D03*
D29*
X162600000Y-98075000D03*
X162600000Y-99725000D03*
D24*
X147200000Y-98400000D03*
D25*
X144660000Y-98400000D03*
X142120000Y-98400000D03*
X147200000Y-95860000D03*
X144660000Y-95860000D03*
X142120000Y-95860000D03*
D30*
X160480000Y-106400000D03*
X159520000Y-106400000D03*
D21*
X158650000Y-101850000D03*
X158650000Y-100900000D03*
X158650000Y-99950000D03*
X156150000Y-99950000D03*
X156150000Y-101850000D03*
D17*
X151100000Y-107200000D03*
D26*
X151100000Y-104660000D03*
X151100000Y-102120000D03*
X151100000Y-99580000D03*
D16*
X169575000Y-101400000D03*
X171225000Y-101400000D03*
D31*
X162450000Y-107950000D03*
X162950000Y-107950000D03*
X163450000Y-107950000D03*
X163950000Y-107950000D03*
X164450000Y-107950000D03*
X164950000Y-107950000D03*
X165450000Y-107950000D03*
X165950000Y-107950000D03*
D32*
X166650000Y-107250000D03*
X166650000Y-106750000D03*
X166650000Y-106250000D03*
X166650000Y-105750000D03*
X166650000Y-105250000D03*
X166650000Y-104750000D03*
X166650000Y-104250000D03*
X166650000Y-103750000D03*
D31*
X165950000Y-103050000D03*
X165450000Y-103050000D03*
X164950000Y-103050000D03*
X164450000Y-103050000D03*
X163950000Y-103050000D03*
X163450000Y-103050000D03*
X162950000Y-103050000D03*
X162450000Y-103050000D03*
D32*
X161750000Y-103750000D03*
X161750000Y-104250000D03*
X161750000Y-104750000D03*
X161750000Y-105250000D03*
X161750000Y-105750000D03*
X161750000Y-106250000D03*
X161750000Y-106750000D03*
X161750000Y-107250000D03*
D33*
X164200000Y-105500000D03*
D18*
X166025000Y-96100000D03*
X164375000Y-96100000D03*
D28*
X158100000Y-104925000D03*
X158100000Y-106475000D03*
D34*
X167400000Y-98420000D03*
X167400000Y-99380000D03*
D24*
X147200000Y-109100000D03*
D25*
X144660000Y-109100000D03*
X142120000Y-109100000D03*
X147200000Y-106560000D03*
X144660000Y-106560000D03*
X142120000Y-106560000D03*
X147200000Y-104020000D03*
X144660000Y-104020000D03*
X142120000Y-104020000D03*
X147200000Y-101480000D03*
X144660000Y-101480000D03*
X142120000Y-101480000D03*
D30*
X160480000Y-105400000D03*
X159520000Y-105400000D03*
D35*
X150900000Y-112350000D03*
X150900000Y-113300000D03*
X150900000Y-114250000D03*
X153500000Y-114250000D03*
X153500000Y-112350000D03*
D24*
X174560000Y-96020000D03*
D25*
X177100000Y-96020000D03*
X179640000Y-96020000D03*
X174560000Y-98560000D03*
X177100000Y-98560000D03*
X179640000Y-98560000D03*
X174560000Y-101100000D03*
X177100000Y-101100000D03*
X179640000Y-101100000D03*
X174560000Y-103640000D03*
X177100000Y-103640000D03*
X179640000Y-103640000D03*
D18*
X147125000Y-112200000D03*
X145475000Y-112200000D03*
D19*
X169632500Y-103100000D03*
X171207500Y-103100000D03*
M02*
